<?xml version="1.0" encoding="utf-8"?>
<!-- Generator: Adobe Illustrator 21.1.0, SVG Export Plug-In . SVG Version: 6.00 Build 0)  -->
<svg version="1.1" id="圖層_1" xmlns="http://www.w3.org/2000/svg" xmlns:xlink="http://www.w3.org/1999/xlink" x="0px" y="0px"
	 viewBox="0 0 24 24" style="enable-background:new 0 0 24 24;" xml:space="preserve">
<style type="text/css">
	.st0{fill:#333333;}
</style>
<title>⚙️/icon/sidebar/04 account</title>
<desc>Created with Sketch.</desc>
<g>
	<path class="st0" d="M20,13.9h-8.3c-0.2,0-0.4,0.2-0.4,0.4s0.2,0.4,0.4,0.4H20c0.2,0,0.4-0.2,0.4-0.4S20.2,13.9,20,13.9z"/>
	<path class="st0" d="M8.8,14L8.8,14l0.1-0.1c-0.3-0.3-0.6-0.5-0.9-0.7c0.1,0,0.1-0.1,0.2-0.1c0.4-0.4,0.6-0.9,0.6-1.5
		c0-0.6-0.2-1.1-0.6-1.5C7.7,9.7,7.2,9.5,6.6,9.5c-0.6,0-1.1,0.2-1.5,0.6c-0.4,0.4-0.6,0.9-0.6,1.5c0,0.6,0.2,1.1,0.6,1.5
		c0.1,0.1,0.1,0.1,0.2,0.1c-0.3,0.1-0.6,0.4-0.9,0.6l0,0c-0.6,0.6-0.9,1.4-0.9,2.3c0,0.2,0.2,0.4,0.4,0.4h5.6c0.2,0,0.4-0.2,0.4-0.4
		c0-0.8-0.3-1.6-0.9-2.3L8.8,14z M6.7,13l-0.1,0c-0.3,0-0.6-0.2-0.9-0.4l0,0c-0.3-0.3-0.4-0.6-0.4-1c0-0.4,0.1-0.7,0.4-1
		c0.3-0.3,0.6-0.4,1-0.4c0.4,0,0.7,0.1,1,0.4c0.3,0.3,0.4,0.6,0.4,1c0,0.4-0.1,0.7-0.4,1C7.3,12.8,7,13,6.7,13z M6.5,13.7
		c0.1,0,0.1,0,0.2,0c0.6,0,1.2,0.3,1.7,0.7c0.4,0.4,0.6,0.8,0.7,1.3H4.2c0.1-0.5,0.3-1,0.7-1.4C5.3,14,5.9,13.8,6.5,13.7z"/>
	<path class="st0" d="M21.7,5.3L21.7,5.3C21.4,5,21,4.9,20.6,4.9H3.4C3,4.9,2.6,5,2.3,5.3C2,5.6,1.9,6,1.9,6.4v11.2
		c0,0.4,0.2,0.8,0.5,1.1l0,0C2.6,19,3,19.2,3.4,19.2h17.3c0.4,0,0.8-0.2,1.1-0.4c0.3-0.3,0.4-0.7,0.4-1.1V6.4
		C22.2,6,22,5.6,21.7,5.3z M21.4,6.4v11.2c0,0.2-0.1,0.4-0.2,0.5c-0.1,0.1-0.3,0.2-0.5,0.2H3.4c-0.2,0-0.4-0.1-0.5-0.2
		c-0.1-0.1-0.2-0.3-0.2-0.5V6.4c0-0.2,0.1-0.4,0.2-0.5C3,5.7,3.2,5.6,3.4,5.6h17.3c0.2,0,0.4,0.1,0.5,0.2C21.3,6,21.4,6.2,21.4,6.4z
		"/>
	<path class="st0" d="M12.6,8.6L12.6,8.6C12.9,8.4,13,8,13,7.7c0-0.3-0.1-0.7-0.4-0.9l0,0c-0.5-0.5-1.3-0.5-1.8,0
		c-0.2,0.2-0.4,0.6-0.4,0.9c0,0.3,0.1,0.7,0.4,0.9C11.1,8.9,11.4,9,11.7,9C12.1,9,12.4,8.9,12.6,8.6z M12.2,8.2l-0.1-0.1
		c-0.2,0.2-0.6,0.2-0.7,0c-0.1-0.1-0.2-0.2-0.2-0.4s0.1-0.3,0.2-0.4c0.1-0.1,0.2-0.2,0.4-0.2s0.3,0.1,0.4,0.2
		c0.1,0.1,0.2,0.2,0.2,0.4c0,0.1-0.1,0.3-0.2,0.4L12.2,8.2L12.2,8.2z"/>
	<path class="st0" d="M18.6,15.8h-6.9c-0.2,0-0.4,0.2-0.4,0.4c0,0.2,0.2,0.4,0.4,0.4h6.9c0.2,0,0.4-0.2,0.4-0.4
		C19,16,18.8,15.8,18.6,15.8z"/>
</g>
</svg>
