<?xml version="1.0" encoding="utf-8"?>
<!-- Generator: Adobe Illustrator 21.1.0, SVG Export Plug-In . SVG Version: 6.00 Build 0)  -->
<svg version="1.1" id="圖層_1" xmlns="http://www.w3.org/2000/svg" xmlns:xlink="http://www.w3.org/1999/xlink" x="0px" y="0px"
	 viewBox="0 0 24 24" style="enable-background:new 0 0 24 24;" xml:space="preserve">
<style type="text/css">
	.st0{fill:#FFFFFF;}
	.st1{fill:#333333;}
</style>
<g>
	<path id="path-1" class="st0" d="M17.3,10.1h-0.2c-0.6,0-1,0.4-1,1v1.5c0,0.6,0.4,1,1,1h0.2v7.2c0,0.6,0.4,1,1,1h1.5
		c0.6,0,1-0.4,1-1l0,0v-7.2H21c0.6,0,1-0.4,1-1v-1.5c0-0.6-0.4-1-1-1h-0.2V4c0-0.6-0.4-1-1-1l0,0h-1.5c-0.6,0-1,0.4-1,1l0,0V10.1z
		 M10.2,14.8h-0.2c-0.6,0-1,0.4-1,1v1.5c0,0.6,0.4,1,1,1h0.2v2.5c0,0.6,0.4,1,1,1h1.5c0.6,0,1-0.4,1-1v-2.5h0.2c0.6,0,1-0.4,1-1
		v-1.5c0-0.6-0.4-1-1-1h-0.2V4c0-0.6-0.4-1-1-1h-1.5c-0.6,0-1,0.4-1,1l0,0V14.8z M6.7,6.5V4c0-0.6-0.4-1-1-1l0,0H4.2l0,0
		c-0.6,0-1,0.4-1,1l0,0v2.5H3l0,0c-0.6,0-1,0.4-1,1l0,0v1.5c0,0.6,0.4,1,1,1h0.2v10.8c0,0.6,0.4,1,1,1h1.5c0.6,0,1-0.4,1-1V10.1h0.2
		c0.6,0,1-0.4,1-1V7.5c0-0.6-0.4-1-1-1H6.7z"/>
</g>
<title>⚙️/icon/function/16 adjust</title>
<desc>Created with Sketch.</desc>
<g id="Page-1">
	<g id="_x2699__xFE0F__x2F_icon_x2F_function_x2F_16-adjust">
		<g id="Combined-Shape">
			<path id="path-1_1_" class="st1" d="M17.3,10.1h-0.2c-0.6,0-1,0.4-1,1v1.5c0,0.6,0.4,1,1,1h0.2v7.2c0,0.6,0.4,1,1,1h1.5
				c0.6,0,1-0.4,1-1l0,0v-7.2H21c0.6,0,1-0.4,1-1v-1.5c0-0.6-0.4-1-1-1h-0.2V4c0-0.6-0.4-1-1-1l0,0h-1.5c-0.6,0-1,0.4-1,1l0,0V10.1z
				 M10.2,14.8h-0.2c-0.6,0-1,0.4-1,1v1.5c0,0.6,0.4,1,1,1h0.2v2.5c0,0.6,0.4,1,1,1h1.5c0.6,0,1-0.4,1-1v-2.5h0.2c0.6,0,1-0.4,1-1
				v-1.5c0-0.6-0.4-1-1-1h-0.2V4c0-0.6-0.4-1-1-1h-1.5c-0.6,0-1,0.4-1,1l0,0V14.8z M6.7,6.5V4c0-0.6-0.4-1-1-1l0,0H4.2l0,0
				c-0.6,0-1,0.4-1,1l0,0v2.5H3l0,0c-0.6,0-1,0.4-1,1l0,0v1.5c0,0.6,0.4,1,1,1h0.2v10.8c0,0.6,0.4,1,1,1h1.5c0.6,0,1-0.4,1-1V10.1
				h0.2c0.6,0,1-0.4,1-1V7.5c0-0.6-0.4-1-1-1H6.7z"/>
		</g>
	</g>
</g>
</svg>
