<?xml version="1.0" encoding="utf-8"?>
<!-- Generator: Adobe Illustrator 22.1.0, SVG Export Plug-In . SVG Version: 6.00 Build 0)  -->
<svg version="1.1" id="card_1_" xmlns="http://www.w3.org/2000/svg" xmlns:xlink="http://www.w3.org/1999/xlink" x="0px" y="0px"
	 viewBox="0 0 32 32" style="enable-background:new 0 0 32 32;" xml:space="preserve">
<style type="text/css">
	.st0{fill:#202122;}
</style>
<path id="card" class="st0" d="M2.5,1.6C2,1.6,1.6,2,1.6,2.5v9.7C1.6,12.6,2,13,2.5,13h9.7c0.5,0,0.8-0.4,0.8-0.8V2.5
	c0-0.5-0.4-0.8-0.8-0.8H2.5z M2.5,0h9.7c1.4,0,2.5,1.1,2.5,2.5v9.7c0,1.4-1.1,2.5-2.5,2.5H2.5c-1.4,0-2.5-1.1-2.5-2.5V2.5
	C0,1.1,1.1,0,2.5,0z M2.5,19c-0.5,0-0.8,0.4-0.8,0.8v9.7c0,0.5,0.4,0.8,0.8,0.8h9.7c0.5,0,0.8-0.4,0.8-0.8v-9.7
	c0-0.5-0.4-0.8-0.8-0.8H2.5z M2.5,17.3h9.7c1.4,0,2.5,1.1,2.5,2.5v9.7c0,1.4-1.1,2.5-2.5,2.5H2.5C1.1,32,0,30.9,0,29.5v-9.7
	C0,18.4,1.1,17.3,2.5,17.3z M19.8,1.6C19.4,1.6,19,2,19,2.5v9.7c0,0.5,0.4,0.8,0.8,0.8h9.7c0.5,0,0.8-0.4,0.8-0.8V2.5
	c0-0.5-0.4-0.8-0.8-0.8H19.8z M19.8,0h9.7C30.9,0,32,1.1,32,2.5v9.7c0,1.4-1.1,2.5-2.5,2.5h-9.7c-1.4,0-2.5-1.1-2.5-2.5V2.5
	C17.3,1.1,18.4,0,19.8,0z M19.8,19c-0.5,0-0.8,0.4-0.8,0.8v9.7c0,0.5,0.4,0.8,0.8,0.8h9.7c0.5,0,0.8-0.4,0.8-0.8v-9.7
	c0-0.5-0.4-0.8-0.8-0.8H19.8z M19.8,17.3h9.7c1.4,0,2.5,1.1,2.5,2.5v9.7c0,1.4-1.1,2.5-2.5,2.5h-9.7c-1.4,0-2.5-1.1-2.5-2.5v-9.7
	C17.3,18.4,18.4,17.3,19.8,17.3z"/>
</svg>
