<?xml version="1.0" encoding="utf-8"?>
<!-- Generator: Adobe Illustrator 16.0.4, SVG Export Plug-In . SVG Version: 6.00 Build 0)  -->
<!DOCTYPE svg PUBLIC "-//W3C//DTD SVG 1.1//EN" "http://www.w3.org/Graphics/SVG/1.1/DTD/svg11.dtd">
<svg version="1.1" id="圖層_1" xmlns="http://www.w3.org/2000/svg" xmlns:xlink="http://www.w3.org/1999/xlink" x="0px" y="0px"
	 width="639px" height="639px" viewBox="-394.5 -394.5 639 639" enable-background="new -394.5 -394.5 639 639"
	 xml:space="preserve">
<title>Group 16</title>
<desc>Created with Sketch.</desc>
<g id="UI">
	<g id="Group-16" transform="translate(-0.000000, 0.000000)">
		<path id="Path" fill="#202122" d="M-6.192-364.246h176c24.53,0,44.452,19.893,44.452,44.436v175.987
			c0,24.532-19.922,44.436-44.452,44.436h-176c-24.53,0-44.423-19.904-44.423-44.436V-319.81
			C-50.615-344.353-30.722-364.246-6.192-364.246z"/>
		<path id="Path_1_" fill="#FFFFFF" d="M-6.192-334.609c-8.168,0-14.818,6.619-14.818,14.8v175.987
			c0,8.181,6.65,14.805,14.818,14.805h176c8.168,0,14.818-6.625,14.818-14.805V-319.81c0-8.181-6.65-14.8-14.818-14.8H-6.192z"/>
		<path id="Path_2_" fill="#202122" d="M-6.192-50.601h176c24.53,0,44.452,19.894,44.452,44.423v176
			c0,24.531-19.922,44.424-44.452,44.424h-176c-24.53,0-44.423-19.893-44.423-44.424v-176
			C-50.615-30.707-30.722-50.601-6.192-50.601z"/>
		<path id="Path_3_" fill="#FFFFFF" d="M-6.192-20.996c-8.168,0-14.818,6.65-14.818,14.818v176c0,8.168,6.65,14.818,14.818,14.818
			h176c8.168,0,14.818-6.65,14.818-14.818v-176c0-8.168-6.65-14.818-14.818-14.818H-6.192z"/>
		<path id="Path_4_" fill="#202122" d="M-319.824-50.601h175.987c24.545,0,44.437,19.894,44.437,44.423v176
			c0,24.531-19.891,44.424-44.437,44.424h-175.987c-24.544,0-44.436-19.893-44.436-44.424v-176
			C-364.26-30.707-344.368-50.601-319.824-50.601z"/>
		<path id="Path_5_" fill="#FFFFFF" d="M-319.824-20.996c-8.181,0-14.815,6.65-14.815,14.818v176
			c0,8.168,6.635,14.818,14.815,14.818h175.987c8.181,0,14.803-6.65,14.803-14.818v-176c0-8.168-6.622-14.818-14.803-14.818
			H-319.824z"/>
		<path id="Path_6_" fill="#202122" d="M-319.824-364.246h175.987c24.545,0,44.437,19.893,44.437,44.436v175.987
			c0,24.532-19.891,44.436-44.437,44.436h-175.987c-24.544,0-44.436-19.904-44.436-44.436V-319.81
			C-364.26-344.353-344.368-364.246-319.824-364.246z"/>
		<path id="Path_7_" fill="#FFFFFF" d="M-319.824-334.609c-8.181,0-14.815,6.619-14.815,14.8v175.987
			c0,8.181,6.635,14.805,14.815,14.805h175.987c8.181,0,14.803-6.625,14.803-14.805V-319.81c0-8.181-6.622-14.8-14.803-14.8
			H-319.824z"/>
	</g>
</g>
</svg>
