<?xml version="1.0" encoding="utf-8"?>
<!-- Generator: Adobe Illustrator 16.0.4, SVG Export Plug-In . SVG Version: 6.00 Build 0)  -->
<!DOCTYPE svg PUBLIC "-//W3C//DTD SVG 1.1//EN" "http://www.w3.org/Graphics/SVG/1.1/DTD/svg11.dtd">
<svg version="1.1" id="圖層_1" xmlns="http://www.w3.org/2000/svg" xmlns:xlink="http://www.w3.org/1999/xlink" x="0px" y="0px"
	 width="587px" height="699.885px" viewBox="-342.5 -408.366 587 699.885" enable-background="new -342.5 -408.366 587 699.885"
	 xml:space="preserve">
<title>left-arrow</title>
<desc>Created with Sketch.</desc>
<g id="wirframe">
	
		<g id="left-arrow" transform="translate(26.000000, 31.000000) rotate(-270.000000) translate(-26.000000, -31.000000) translate(-5.000000, 5.000000)">
		<path id="Path" d="M252.71,45.013l1.078,0.244h-468.054l147.143-148.9c7.205-7.261,11.156-17.111,11.156-27.445
			c0-10.347-3.951-20.118-11.156-27.413l-22.901-23.134c-7.2-7.262-16.791-11.284-27.02-11.284c-10.234,0-19.836,3.99-27.036,11.261
			l-252.229,254.67c-7.227,7.303-11.178,17.02-11.149,27.361c-0.028,10.4,3.923,20.128,11.149,27.417l252.229,254.69
			c7.2,7.26,16.795,11.26,27.036,11.26c10.229,0,19.82-4.005,27.02-11.26l22.901-23.13c7.205-7.261,11.156-16.951,11.156-27.292
			c0-10.327-3.951-19.511-11.156-26.771l-148.802-149.74h469.141c21.086,0,38.803-18.349,38.803-39.623V83.201
			C292.02,61.937,273.773,45.013,252.71,45.013z"/>
	</g>
</g>
</svg>
