<?xml version="1.0" encoding="iso-8859-1"?>
<!-- Generator: Adobe Illustrator 16.0.0, SVG Export Plug-In . SVG Version: 6.00 Build 0)  -->
<!DOCTYPE svg PUBLIC "-//W3C//DTD SVG 1.1//EN" "http://www.w3.org/Graphics/SVG/1.1/DTD/svg11.dtd">
<svg xmlns="http://www.w3.org/2000/svg" xmlns:xlink="http://www.w3.org/1999/xlink" version="1.1" id="Capa_1" x="0px" y="0px" width="512px" height="512px" viewBox="0 0 298.465 298.465" style="enable-background:new 0 0 298.465 298.465;" xml:space="preserve">
<g>
	<g>
		<path d="M162.812,265.693L46.353,149.229L162.812,32.773c3.627-3.625,5.625-8.446,5.625-13.574s-1.998-9.949-5.625-13.573    c-3.627-3.628-8.451-5.625-13.579-5.625c-5.128,0-9.948,1.997-13.57,5.624L5.626,135.656C2.051,139.23,0,144.177,0,149.229    s2.051,10,5.626,13.573L135.663,292.84c3.623,3.627,8.443,5.625,13.575,5.625c5.13,0,9.95-1.998,13.573-5.625    c3.629-3.625,5.627-8.445,5.627-13.574S166.439,269.316,162.812,265.693z" fill="#202122"/>
		<path d="M292.84,265.693L176.387,149.229L292.84,32.772c3.627-3.625,5.625-8.446,5.625-13.574s-1.998-9.949-5.625-13.573    C289.213,1.997,284.389,0,279.262,0c-5.129,0-9.947,1.997-13.57,5.624L135.663,135.656c-3.627,3.625-5.625,8.445-5.625,13.574    c0,5.127,1.998,9.948,5.625,13.573L265.691,292.84c3.623,3.627,8.443,5.625,13.574,5.625c5.125,0,9.947-1.998,13.574-5.625    c3.627-3.625,5.625-8.445,5.625-13.574S296.467,269.316,292.84,265.693z" fill="#202122"/>
	</g>
</g>
<g>
</g>
<g>
</g>
<g>
</g>
<g>
</g>
<g>
</g>
<g>
</g>
<g>
</g>
<g>
</g>
<g>
</g>
<g>
</g>
<g>
</g>
<g>
</g>
<g>
</g>
<g>
</g>
<g>
</g>
</svg>
