<?xml version="1.0" encoding="utf-8"?>
<!-- Generator: Adobe Illustrator 21.1.0, SVG Export Plug-In . SVG Version: 6.00 Build 0)  -->
<svg version="1.1" id="圖層_1" xmlns="http://www.w3.org/2000/svg" xmlns:xlink="http://www.w3.org/1999/xlink" x="0px" y="0px"
	 viewBox="0 0 24 24" style="enable-background:new 0 0 24 24;" xml:space="preserve">
<style type="text/css">
	.st0{fill:#FFFFFF;}
	.st1{fill:#333333;}
</style>
<g>
	<path id="path-1" class="st0" d="M10,13.4c0-0.1,0-0.2,0-0.3c0-0.1-0.1-0.2-0.2-0.3l-2-1.8l2.7-0.3c0.1,0,0.2,0,0.3-0.1
		c0.1-0.1,0.2-0.1,0.2-0.2L12,8l0,0l0,0l1.1,2.5c0,0.1,0.1,0.2,0.2,0.2c0.1,0.1,0.2,0.1,0.3,0.1l2.6,0.2l0,0v0l-2,1.8
		c-0.1,0.1-0.1,0.2-0.2,0.3c0,0.1,0,0.2,0,0.3l0.6,2.6l0,0c0,0,0,0,0,0l-2.3-1.4c-0.1-0.1-0.2-0.1-0.3-0.1c-0.1,0-0.2,0-0.3,0.1
		L9.4,16c0,0,0,0,0,0L10,13.4z M16.8,10.9c0-0.1-0.1-0.2-0.2-0.3c-0.1-0.1-0.2-0.1-0.3-0.1l-2.7-0.3l0,0l-1.1-2.5
		c0-0.1-0.1-0.2-0.2-0.3c-0.2-0.1-0.4-0.1-0.7,0c-0.1,0.1-0.2,0.2-0.2,0.3l-1.1,2.5l0,0l-2.7,0.2c-0.1,0-0.2,0.1-0.3,0.1
		c-0.1,0.1-0.2,0.2-0.2,0.3c0,0.1,0,0.2,0,0.3c0,0.1,0.1,0.2,0.2,0.3l2,1.8l0,0l-0.6,2.6c0,0.1,0,0.2,0,0.3c0,0.1,0.1,0.2,0.2,0.3
		c0.1,0.1,0.2,0.1,0.3,0.1c0.1,0,0.2,0,0.3-0.1l2.3-1.4l2.3,1.4c0.1,0.1,0.2,0.1,0.3,0.1c0,0,0,0,0,0c0.1,0,0.2,0,0.3-0.1
		c0.1-0.1,0.2-0.2,0.2-0.3c0-0.1,0-0.2,0-0.3l-0.6-2.6c0,0,0,0,0,0l2-1.8c0.1-0.1,0.2-0.2,0.2-0.3C16.9,11.1,16.9,11,16.8,10.9
		L16.8,10.9z M21.2,12c0,2.5-1,4.8-2.7,6.5c-1.7,1.7-4.1,2.7-6.5,2.7c-2.5,0-4.8-1-6.5-2.7c-1.7-1.7-2.7-4.1-2.7-6.5s1-4.8,2.7-6.5
		C7.2,3.7,9.5,2.8,12,2.8c2.5,0,4.8,1,6.5,2.7C20.3,7.2,21.2,9.5,21.2,12 M19.1,4.9C17.2,3,14.7,2,12,2C9.3,2,6.8,3,4.9,4.9
		C3,6.8,2,9.3,2,12s1,5.2,2.9,7.1C6.8,21,9.3,22,12,22c2.7,0,5.2-1,7.1-2.9C21,17.2,22,14.7,22,12S21,6.8,19.1,4.9 M18.4,9.3
		c0.3,0.8,0.5,1.7,0.5,2.7c0,0.9-0.2,1.8-0.5,2.7c-0.3,0.8-0.9,1.6-1.5,2.3c-0.6,0.6-1.4,1.2-2.3,1.5c-1.7,0.7-3.6,0.7-5.3,0
		c-0.8-0.4-1.6-0.9-2.3-1.5c-0.7-0.7-1.2-1.4-1.5-2.3c-0.3-0.8-0.5-1.7-0.5-2.7c0-0.9,0.2-1.8,0.5-2.7c0.3-0.8,0.9-1.6,1.5-2.3
		c0.7-0.7,1.4-1.2,2.3-1.5c0.8-0.3,1.7-0.5,2.7-0.5c0.9,0,1.8,0.2,2.7,0.5c0.8,0.3,1.6,0.9,2.3,1.5C17.6,7.7,18.1,8.5,18.4,9.3
		 M14.9,4.9c-1.9-0.8-4-0.8-5.9,0c-0.9,0.4-1.8,1-2.5,1.7C5.8,7.3,5.3,8.1,4.9,9.1C4.5,10,4.3,11,4.3,12c0,1,0.2,2,0.6,2.9
		c0.4,0.9,1,1.8,1.7,2.5c0.7,0.7,1.6,1.3,2.5,1.7c0.9,0.4,1.9,0.6,2.9,0.6s2-0.2,2.9-0.6c0.9-0.4,1.8-1,2.5-1.7
		c0.7-0.7,1.3-1.6,1.7-2.5c0.4-0.9,0.6-1.9,0.6-2.9s-0.2-2-0.6-2.9c-0.4-0.9-1-1.8-1.7-2.5C16.7,5.8,15.9,5.3,14.9,4.9"/>
</g>
<title>⚙️/icon/sidebar/09 bonus</title>
<desc>Created with Sketch.</desc>
<g id="Page-1">
	<g id="_x2699__xFE0F__x2F_icon_x2F_sidebar_x2F_09-bonus">
		<g id="Fill-4">
			<path id="path-1_1_" class="st1" d="M10,13.4c0-0.1,0-0.2,0-0.3c0-0.1-0.1-0.2-0.2-0.3l-2-1.8l2.7-0.3c0.1,0,0.2,0,0.3-0.1
				c0.1-0.1,0.2-0.1,0.2-0.2L12,8l0,0l0,0l1.1,2.5c0,0.1,0.1,0.2,0.2,0.2c0.1,0.1,0.2,0.1,0.3,0.1l2.6,0.2l0,0v0l-2,1.8
				c-0.1,0.1-0.1,0.2-0.2,0.3c0,0.1,0,0.2,0,0.3l0.6,2.6l0,0c0,0,0,0,0,0l-2.3-1.4c-0.1-0.1-0.2-0.1-0.3-0.1c-0.1,0-0.2,0-0.3,0.1
				L9.4,16c0,0,0,0,0,0L10,13.4z M16.8,10.9c0-0.1-0.1-0.2-0.2-0.3c-0.1-0.1-0.2-0.1-0.3-0.1l-2.7-0.3l0,0l-1.1-2.5
				c0-0.1-0.1-0.2-0.2-0.3c-0.2-0.1-0.4-0.1-0.7,0c-0.1,0.1-0.2,0.2-0.2,0.3l-1.1,2.5l0,0l-2.7,0.2c-0.1,0-0.2,0.1-0.3,0.1
				c-0.1,0.1-0.2,0.2-0.2,0.3c0,0.1,0,0.2,0,0.3c0,0.1,0.1,0.2,0.2,0.3l2,1.8l0,0l-0.6,2.6c0,0.1,0,0.2,0,0.3c0,0.1,0.1,0.2,0.2,0.3
				c0.1,0.1,0.2,0.1,0.3,0.1c0.1,0,0.2,0,0.3-0.1l2.3-1.4l2.3,1.4c0.1,0.1,0.2,0.1,0.3,0.1c0,0,0,0,0,0c0.1,0,0.2,0,0.3-0.1
				c0.1-0.1,0.2-0.2,0.2-0.3c0-0.1,0-0.2,0-0.3l-0.6-2.6c0,0,0,0,0,0l2-1.8c0.1-0.1,0.2-0.2,0.2-0.3C16.9,11.1,16.9,11,16.8,10.9
				L16.8,10.9z M21.2,12c0,2.5-1,4.8-2.7,6.5c-1.7,1.7-4.1,2.7-6.5,2.7c-2.5,0-4.8-1-6.5-2.7c-1.7-1.7-2.7-4.1-2.7-6.5
				s1-4.8,2.7-6.5C7.2,3.7,9.5,2.8,12,2.8c2.5,0,4.8,1,6.5,2.7C20.3,7.2,21.2,9.5,21.2,12 M19.1,4.9C17.2,3,14.7,2,12,2
				C9.3,2,6.8,3,4.9,4.9C3,6.8,2,9.3,2,12s1,5.2,2.9,7.1C6.8,21,9.3,22,12,22c2.7,0,5.2-1,7.1-2.9C21,17.2,22,14.7,22,12
				S21,6.8,19.1,4.9 M18.4,9.3c0.3,0.8,0.5,1.7,0.5,2.7c0,0.9-0.2,1.8-0.5,2.7c-0.3,0.8-0.9,1.6-1.5,2.3c-0.6,0.6-1.4,1.2-2.3,1.5
				c-1.7,0.7-3.6,0.7-5.3,0c-0.8-0.4-1.6-0.9-2.3-1.5c-0.7-0.7-1.2-1.4-1.5-2.3c-0.3-0.8-0.5-1.7-0.5-2.7c0-0.9,0.2-1.8,0.5-2.7
				c0.3-0.8,0.9-1.6,1.5-2.3c0.7-0.7,1.4-1.2,2.3-1.5c0.8-0.3,1.7-0.5,2.7-0.5c0.9,0,1.8,0.2,2.7,0.5c0.8,0.3,1.6,0.9,2.3,1.5
				C17.6,7.7,18.1,8.5,18.4,9.3 M14.9,4.9c-1.9-0.8-4-0.8-5.9,0c-0.9,0.4-1.8,1-2.5,1.7C5.8,7.3,5.3,8.1,4.9,9.1
				C4.5,10,4.3,11,4.3,12c0,1,0.2,2,0.6,2.9c0.4,0.9,1,1.8,1.7,2.5c0.7,0.7,1.6,1.3,2.5,1.7c0.9,0.4,1.9,0.6,2.9,0.6s2-0.2,2.9-0.6
				c0.9-0.4,1.8-1,2.5-1.7c0.7-0.7,1.3-1.6,1.7-2.5c0.4-0.9,0.6-1.9,0.6-2.9s-0.2-2-0.6-2.9c-0.4-0.9-1-1.8-1.7-2.5
				C16.7,5.8,15.9,5.3,14.9,4.9"/>
		</g>
	</g>
</g>
</svg>
