<?xml version="1.0" encoding="utf-8"?>
<!-- Generator: Adobe Illustrator 21.1.0, SVG Export Plug-In . SVG Version: 6.00 Build 0)  -->
<svg version="1.1" id="圖層_1" xmlns="http://www.w3.org/2000/svg" xmlns:xlink="http://www.w3.org/1999/xlink" x="0px" y="0px"
	 viewBox="0 0 24 24" style="enable-background:new 0 0 24 24;" xml:space="preserve">
<style type="text/css">
	.st0{fill:#FFFFFF;}
	.st1{fill:#333333;}
</style>
<g>
	<path id="path-1" class="st0" d="M3,2h6.6c0.6,0,1,0.4,1,1v6.6c0,0.6-0.4,1-1,1H3c-0.6,0-1-0.4-1-1V3l0,0C2,2.4,2.4,2,3,2L3,2z
		 M3,13.4h6.6c0.6,0,1,0.4,1,1V21c0,0.6-0.4,1-1,1H3c-0.6,0-1-0.4-1-1v-6.6C2,13.9,2.4,13.4,3,13.4L3,13.4z M14.4,2H21
		c0.6,0,1,0.4,1,1v6.6c0,0.6-0.4,1-1,1h-6.6c-0.6,0-1-0.4-1-1V3l0,0C13.4,2.4,13.9,2,14.4,2z M14.4,13.4H21c0.6,0,1,0.4,1,1V21
		c0,0.6-0.4,1-1,1h-6.6c-0.6,0-1-0.4-1-1v-6.6C13.4,13.9,13.9,13.4,14.4,13.4z"/>
</g>
<title>⚙️/icon/function/06 card</title>
<desc>Created with Sketch.</desc>
<g id="Page-1">
	<g id="_x2699__xFE0F__x2F_icon_x2F_function_x2F_06-card">
		<g id="Combined-Shape">
			<path id="path-1_1_" class="st1" d="M3,2h6.6c0.6,0,1,0.4,1,1v6.6c0,0.6-0.4,1-1,1H3c-0.6,0-1-0.4-1-1V3l0,0C2,2.4,2.4,2,3,2L3,2
				z M3,13.4h6.6c0.6,0,1,0.4,1,1V21c0,0.6-0.4,1-1,1H3c-0.6,0-1-0.4-1-1v-6.6C2,13.9,2.4,13.4,3,13.4L3,13.4z M14.4,2H21
				c0.6,0,1,0.4,1,1v6.6c0,0.6-0.4,1-1,1h-6.6c-0.6,0-1-0.4-1-1V3l0,0C13.4,2.4,13.9,2,14.4,2z M14.4,13.4H21c0.6,0,1,0.4,1,1V21
				c0,0.6-0.4,1-1,1h-6.6c-0.6,0-1-0.4-1-1v-6.6C13.4,13.9,13.9,13.4,14.4,13.4z"/>
		</g>
	</g>
</g>
</svg>
