<?xml version="1.0" encoding="utf-8"?>
<!-- Generator: Adobe Illustrator 21.1.0, SVG Export Plug-In . SVG Version: 6.00 Build 0)  -->
<svg version="1.1" id="圖層_1" xmlns="http://www.w3.org/2000/svg" xmlns:xlink="http://www.w3.org/1999/xlink" x="0px" y="0px"
	 viewBox="0 0 24 24" style="enable-background:new 0 0 24 24;" xml:space="preserve">
<style type="text/css">
	.st0{fill:#FFFFFF;}
	.st1{fill:#333333;}
</style>
<g>
	<path id="path-1" class="st0" d="M22.6,6.3l-1.9-1.9c-0.3-0.3-0.6-0.4-1-0.4c-0.4,0-0.7,0.1-1,0.4l-9.3,9.4L5.3,9.6
		C5,9.3,4.7,9.2,4.3,9.2c-0.4,0-0.7,0.1-1,0.4l-1.9,1.9c-0.3,0.3-0.4,0.6-0.4,1c0,0.4,0.1,0.7,0.4,1l5.1,5.2l1.9,1.9
		c0.3,0.3,0.6,0.4,1,0.4c0.4,0,0.7-0.1,1-0.4l1.9-1.9L22.6,8.3C22.9,8,23,7.7,23,7.3C23,6.9,22.9,6.6,22.6,6.3"/>
</g>
<title>⚙️/icon/function/04 dealed</title>
<desc>Created with Sketch.</desc>
<g id="Page-1">
	<g id="_x2699__xFE0F__x2F_icon_x2F_function_x2F_04-dealed">
		<g id="Fill-1">
			<path id="path-1_1_" class="st1" d="M22.6,6.3l-1.9-1.9c-0.3-0.3-0.6-0.4-1-0.4c-0.4,0-0.7,0.1-1,0.4l-9.3,9.4L5.3,9.6
				C5,9.3,4.7,9.2,4.3,9.2c-0.4,0-0.7,0.1-1,0.4l-1.9,1.9c-0.3,0.3-0.4,0.6-0.4,1c0,0.4,0.1,0.7,0.4,1l5.1,5.2l1.9,1.9
				c0.3,0.3,0.6,0.4,1,0.4c0.4,0,0.7-0.1,1-0.4l1.9-1.9L22.6,8.3C22.9,8,23,7.7,23,7.3C23,6.9,22.9,6.6,22.6,6.3"/>
		</g>
	</g>
</g>
</svg>
