<?xml version="1.0" encoding="utf-8"?>
<!-- Generator: Adobe Illustrator 21.1.0, SVG Export Plug-In . SVG Version: 6.00 Build 0)  -->
<svg version="1.1" id="圖層_1" xmlns="http://www.w3.org/2000/svg" xmlns:xlink="http://www.w3.org/1999/xlink" x="0px" y="0px"
	 viewBox="0 0 24 24" style="enable-background:new 0 0 24 24;" xml:space="preserve">
<style type="text/css">
	.st0{fill:#FFFFFF;}
	.st1{fill:#333333;}
</style>
<g>
	<path id="path-1" class="st0" d="M14.8,7.1c0,0.3,0.2,0.4,0.4,0.4h3.9c-1.2-1.3-3.1-3.3-4.3-4.7V7.1z M13,15.5l3.8-3.8l-1.1-1.1
		l-3.8,3.8l-3.8-3.8l-1.1,1.1l3.8,3.8l-3.8,3.8l1.1,1.1l3.8-3.8l3.8,3.8l1.1-1.1L13,15.5z M14.1,7.1V1c0.2,0.1,6.7,7.2,6.8,7.4h-5.6
		C14.7,8.4,14.1,8,14.1,7.1z M4.1,1.8C3.9,1.8,3.8,2,3.8,2.2v19.6c0,0.2,0.1,0.4,0.3,0.4h15.6c0.2,0,0.3-0.2,0.3-0.4V9.7h-5.5
		c-1.1,0-1.9-0.9-1.9-2V1.8H4.1z M13.4,7.7c0,0.7,0.5,1.2,1.1,1.2h6.3v13c0,0.7-0.5,1.2-1.1,1.2H4.1C3.5,23,3,22.5,3,21.8V2.2
		C3,1.5,3.5,1,4.1,1h9.3V7.7z"/>
</g>
<title>⚙️/icon/sidebar/20 關閉中</title>
<desc>Created with Sketch.</desc>
<g id="Page-1">
	<g id="_x2699__xFE0F__x2F_icon_x2F_sidebar_x2F_20-關閉中">
		<g id="Path">
			<path id="path-1_1_" class="st1" d="M14.8,7.1c0,0.3,0.2,0.4,0.4,0.4h3.9c-1.2-1.3-3.1-3.3-4.3-4.7V7.1z M13,15.5l3.8-3.8
				l-1.1-1.1l-3.8,3.8l-3.8-3.8l-1.1,1.1l3.8,3.8l-3.8,3.8l1.1,1.1l3.8-3.8l3.8,3.8l1.1-1.1L13,15.5z M14.1,7.1V1
				c0.2,0.1,6.7,7.2,6.8,7.4h-5.6C14.7,8.4,14.1,8,14.1,7.1z M4.1,1.8C3.9,1.8,3.8,2,3.8,2.2v19.6c0,0.2,0.1,0.4,0.3,0.4h15.6
				c0.2,0,0.3-0.2,0.3-0.4V9.7h-5.5c-1.1,0-1.9-0.9-1.9-2V1.8H4.1z M13.4,7.7c0,0.7,0.5,1.2,1.1,1.2h6.3v13c0,0.7-0.5,1.2-1.1,1.2
				H4.1C3.5,23,3,22.5,3,21.8V2.2C3,1.5,3.5,1,4.1,1h9.3V7.7z"/>
		</g>
	</g>
</g>
</svg>
