<?xml version="1.0" encoding="utf-8"?>
<!-- Generator: Adobe Illustrator 22.1.0, SVG Export Plug-In . SVG Version: 6.00 Build 0)  -->
<svg version="1.1" id="圖層_1" xmlns="http://www.w3.org/2000/svg" xmlns:xlink="http://www.w3.org/1999/xlink" x="0px" y="0px"
	 viewBox="0 0 34 31" style="enable-background:new 0 0 34 31;" xml:space="preserve">
<style type="text/css">
	.st0{fill:#202122;}
</style>
<path class="st0" d="M17,31c-0.3,0-0.6-0.1-0.9-0.3l-13-13.7C1.2,15.2,0,12.5,0,9.7C0,4.4,4.1,0,9.2,0c3.1,0,6.1,1.8,7.8,4.6
	C18.7,1.8,21.7,0,24.8,0C29.9,0,34,4.4,34,9.7c0,2.7-1.2,5.4-3.2,7.3L17.6,30.8C17.5,30.9,17.3,31,17,31z M9.2,1C4.7,1,1,4.9,1,9.7
	c0,2.5,1,4.9,2.8,6.5l13,13.7c0,0,0.1,0,0.1,0c0,0,0.1,0,0.1-0.1c0,0,0.1,0,0.1-0.1l12.9-13.6C32,14.5,33,12.1,33,9.7
	C33,4.9,29.3,1,24.8,1c-2.8,0-5.5,1.6-7,4.2L17,6.6l-0.8-1.5C14.7,2.6,12,1,9.2,1z"/>
</svg>
