<?xml version="1.0" encoding="utf-8"?>
<!-- Generator: Adobe Illustrator 21.1.0, SVG Export Plug-In . SVG Version: 6.00 Build 0)  -->
<svg version="1.1" id="圖層_1" xmlns="http://www.w3.org/2000/svg" xmlns:xlink="http://www.w3.org/1999/xlink" x="0px" y="0px"
	 viewBox="0 0 24 24" style="enable-background:new 0 0 24 24;" xml:space="preserve">
<style type="text/css">
	.st0{fill:#FFFFFF;}
	.st1{fill:#333333;}
</style>
<g>
	<path id="path-1" class="st0" d="M11.6,21C6.8,20.8,3,16.8,3,12s3.8-8.8,8.6-9L12,3v18L11.6,21z M12,20c4.4,0,8-3.6,8-8s-3.6-8-8-8
		s-8,3.6-8,8S7.6,20,12,20z M12,21c-5,0-9-4-9-9s4-9,9-9s9,4,9,9S17,21,12,21z"/>
</g>
<title>⚙️/icon/function/13 contrast</title>
<desc>Created with Sketch.</desc>
<g id="Page-1">
	<g id="_x2699__xFE0F__x2F_icon_x2F_function_x2F_13-contrast">
		<g id="Oval-4">
			<path id="path-1_1_" class="st1" d="M11.6,21C6.8,20.8,3,16.8,3,12s3.8-8.8,8.6-9L12,3v18L11.6,21z M12,20c4.4,0,8-3.6,8-8
				s-3.6-8-8-8s-8,3.6-8,8S7.6,20,12,20z M12,21c-5,0-9-4-9-9s4-9,9-9s9,4,9,9S17,21,12,21z"/>
		</g>
	</g>
</g>
</svg>
