<?xml version="1.0" encoding="utf-8"?>
<!-- Generator: Adobe Illustrator 21.1.0, SVG Export Plug-In . SVG Version: 6.00 Build 0)  -->
<svg version="1.1" id="圖層_1" xmlns="http://www.w3.org/2000/svg" xmlns:xlink="http://www.w3.org/1999/xlink" x="0px" y="0px"
	 viewBox="0 0 24 24" style="enable-background:new 0 0 24 24;" xml:space="preserve">
<style type="text/css">
	.st0{fill:#FFFFFF;}
	.st1{fill:#333333;}
</style>
<g>
	<path id="path-1" class="st0" d="M12,23C5.9,23,1,18.1,1,12C1,5.9,5.9,1,12,1s11,4.9,11,11C23,18.1,18.1,23,12,23z M7.1,17.7
		c0.2,0,0.4-0.1,0.5-0.2l9.9-9.9c0.3-0.3,0.3-0.8,0-1.1c-0.3-0.3-0.8-0.3-1.1,0l-9.9,9.9c-0.3,0.3-0.3,0.8,0,1.1
		C6.7,17.6,6.9,17.7,7.1,17.7z M8.6,11.2c1.5,0,2.7-1.2,2.7-2.7s-1.2-2.7-2.7-2.7S5.9,7.1,5.9,8.6S7.1,11.2,8.6,11.2z M15.4,18.1
		c1.5,0,2.7-1.2,2.7-2.7c0-1.5-1.2-2.7-2.7-2.7s-2.7,1.2-2.7,2.7C12.8,16.9,13.9,18.1,15.4,18.1z M15.4,14.3c0.6,0,1.1,0.5,1.1,1.1
		c0,0.6-0.5,1.1-1.1,1.1c-0.6,0-1.1-0.5-1.1-1.1C14.3,14.8,14.8,14.3,15.4,14.3z M8.6,7.4c0.6,0,1.1,0.5,1.1,1.1S9.2,9.7,8.6,9.7
		S7.4,9.2,7.4,8.6S8,7.4,8.6,7.4z"/>
</g>
<title>⚙️/icon/function/29 Discount</title>
<desc>Created with Sketch.</desc>
<g id="Page-1">
	<g id="_x2699__xFE0F__x2F_icon_x2F_function_x2F_29-Discount">
		<g id="Combined-Shape">
			<path id="path-1_1_" class="st1" d="M12,23C5.9,23,1,18.1,1,12C1,5.9,5.9,1,12,1s11,4.9,11,11C23,18.1,18.1,23,12,23z M7.1,17.7
				c0.2,0,0.4-0.1,0.5-0.2l9.9-9.9c0.3-0.3,0.3-0.8,0-1.1c-0.3-0.3-0.8-0.3-1.1,0l-9.9,9.9c-0.3,0.3-0.3,0.8,0,1.1
				C6.7,17.6,6.9,17.7,7.1,17.7z M8.6,11.2c1.5,0,2.7-1.2,2.7-2.7s-1.2-2.7-2.7-2.7S5.9,7.1,5.9,8.6S7.1,11.2,8.6,11.2z M15.4,18.1
				c1.5,0,2.7-1.2,2.7-2.7c0-1.5-1.2-2.7-2.7-2.7s-2.7,1.2-2.7,2.7C12.8,16.9,13.9,18.1,15.4,18.1z M15.4,14.3
				c0.6,0,1.1,0.5,1.1,1.1c0,0.6-0.5,1.1-1.1,1.1c-0.6,0-1.1-0.5-1.1-1.1C14.3,14.8,14.8,14.3,15.4,14.3z M8.6,7.4
				c0.6,0,1.1,0.5,1.1,1.1S9.2,9.7,8.6,9.7S7.4,9.2,7.4,8.6S8,7.4,8.6,7.4z"/>
		</g>
	</g>
</g>
</svg>
