<?xml version="1.0" encoding="utf-8"?>
<!-- Generator: Adobe Illustrator 21.1.0, SVG Export Plug-In . SVG Version: 6.00 Build 0)  -->
<svg version="1.1" id="圖層_1" xmlns="http://www.w3.org/2000/svg" xmlns:xlink="http://www.w3.org/1999/xlink" x="0px" y="0px"
	 viewBox="0 0 24 24" style="enable-background:new 0 0 24 24;" xml:space="preserve">
<style type="text/css">
	.st0{fill:#333333;}
</style>
<title>⚙️/icon/house-type/15 dorm</title>
<desc>Created with Sketch.</desc>
<path class="st0" d="M22.6,4c-0.2,0-0.4,0.2-0.4,0.4v2.1c-0.1,0-0.3-0.1-0.4-0.1h-1C20.9,6.2,21,6,21,5.8c0-0.8-0.6-1.4-1.4-1.4
	h-8.1C10.6,4.4,10,5,10,5.8C10,6,10,6.2,10.1,6.4H6.7v-2C6.7,4.2,6.5,4,6.3,4C6.1,4,5.9,4.2,5.9,4.4v2H2.2c-0.1,0-0.3,0-0.4,0.1V4.4
	C1.8,4.2,1.6,4,1.4,4C1.2,4,1,4.2,1,4.4v3.2v0.8v2.8V12v1.6v0.8v2.8V18v1.6C1,19.8,1.2,20,1.4,20c0.2,0,0.4-0.2,0.4-0.4v-0.5
	c0.1,0,0.3,0.1,0.4,0.1h3.7v0.4c0,0.2,0.2,0.4,0.4,0.4c0.2,0,0.4-0.2,0.4-0.4v-0.4h15.1c0.1,0,0.3,0,0.4-0.1v0.5
	c0,0.2,0.2,0.4,0.4,0.4c0.2,0,0.4-0.2,0.4-0.4V18v-0.8V8.4V7.6V4.4C23,4.2,22.8,4,22.6,4z M1.8,9.5c0.1,0,0.3,0.1,0.4,0.1v1.6H1.8
	V9.5z M1.8,12h0.4v1.6H1.8V12z M1.8,14.4h0.4V16c-0.1,0-0.3,0-0.4,0.1V14.4z M5.9,18.4H2.2c-0.2,0-0.4-0.2-0.4-0.4v-0.8
	c0-0.2,0.2-0.4,0.4-0.4h3.7V18.4z M5.9,16H3v-1.6h2.9V16z M5.9,13.6H3V12h2.9V13.6z M5.9,11.2H3V9.6h2.9V11.2z M5.9,8.8H2.2
	C2,8.8,1.8,8.6,1.8,8.4V7.6c0-0.2,0.2-0.4,0.4-0.4h3.7V8.8z M11.4,5.2h8.1c0.3,0,0.6,0.3,0.6,0.6s-0.3,0.6-0.6,0.6h-8.1
	c-0.3,0-0.6-0.3-0.6-0.6S11.1,5.2,11.4,5.2z M6.7,14.4v-0.8V12v-0.8V9.6H21v5.8V16h-0.1c0.1-0.2,0.1-0.4,0.1-0.6
	c0-0.8-0.6-1.4-1.4-1.4h-8.1c-0.8,0-1.4,0.6-1.4,1.4c0,0.2,0.1,0.4,0.1,0.6H6.7V14.4z M20.1,15.4c0,0.3-0.3,0.6-0.6,0.6h-8.1
	c-0.3,0-0.6-0.3-0.6-0.6c0-0.3,0.3-0.6,0.6-0.6h8.1C19.9,14.8,20.1,15.1,20.1,15.4z M22.2,18c0,0.2-0.2,0.4-0.4,0.4H6.7v-1.6h4.7
	h8.1h2.2c0.2,0,0.4,0.2,0.4,0.4V18z M22.2,16.1c-0.1,0-0.3-0.1-0.4-0.1V9.6c0.1,0,0.3,0,0.4-0.1V16.1z M22.2,8.4
	c0,0.2-0.2,0.4-0.4,0.4H6.7V7.2h4.7h8.1h2.2c0.2,0,0.4,0.2,0.4,0.4V8.4z"/>
</svg>
