<?xml version="1.0" encoding="utf-8"?>
<!-- Generator: Adobe Illustrator 21.1.0, SVG Export Plug-In . SVG Version: 6.00 Build 0)  -->
<svg version="1.1" id="圖層_1" xmlns="http://www.w3.org/2000/svg" xmlns:xlink="http://www.w3.org/1999/xlink" x="0px" y="0px"
	 viewBox="0 0 24 24" style="enable-background:new 0 0 24 24;" xml:space="preserve">
<style type="text/css">
	.st0{fill:#FFFFFF;}
	.st1{fill:#333333;}
</style>
<g>
	<path id="path-1" class="st0" d="M15.9,19c0,0.3-0.3,0.7-0.6,0.7c-0.3,0-0.6-0.3-0.6-0.7V7.8c0-0.3,0.3-0.7,0.6-0.7
		c0.3,0,0.6,0.3,0.6,0.7V19z M15.1,4H9V2.6c0-0.1,0.1-0.2,0.2-0.2h5.6c0.1,0,0.2,0.1,0.2,0.2V4z M12.7,19c0,0.3-0.3,0.7-0.6,0.7
		c-0.3,0-0.6-0.3-0.6-0.7V7.8c0-0.3,0.3-0.7,0.6-0.7c0.3,0,0.6,0.3,0.6,0.7V19z M9.5,19c0,0.3-0.3,0.7-0.6,0.7S8.2,19.3,8.2,19V7.8
		c0-0.3,0.3-0.7,0.6-0.7s0.6,0.3,0.6,0.7V19z M20.4,4h-4.1V2.6c0-0.9-0.6-1.6-1.5-1.6H9.2C8.4,1,7.7,1.7,7.7,2.6V4H3.6
		C3.3,4,3,4.3,3,4.7C3,5,3.3,5.4,3.6,5.4h0.8l0.5,15.5C5,22.1,5.8,23,6.9,23h10.2c1.1,0,1.9-0.9,1.9-2.1l0.5-15.5h0.8
		C20.7,5.4,21,5,21,4.7C21.1,4.2,20.8,4,20.4,4L20.4,4z"/>
</g>
<title>⚙️/icon/function/20 刪除</title>
<desc>Created with Sketch.</desc>
<g id="Page-1_1_">
	<g id="_x2699__xFE0F__x2F_icon_x2F_function_x2F_20-刪除">
		<g id="Page-1">
			<path id="path-1_1_" class="st1" d="M15.9,19c0,0.3-0.3,0.7-0.6,0.7c-0.3,0-0.6-0.3-0.6-0.7V7.8c0-0.3,0.3-0.7,0.6-0.7
				c0.3,0,0.6,0.3,0.6,0.7V19z M15.1,4H9V2.6c0-0.1,0.1-0.2,0.2-0.2h5.6c0.1,0,0.2,0.1,0.2,0.2V4z M12.7,19c0,0.3-0.3,0.7-0.6,0.7
				c-0.3,0-0.6-0.3-0.6-0.7V7.8c0-0.3,0.3-0.7,0.6-0.7c0.3,0,0.6,0.3,0.6,0.7V19z M9.5,19c0,0.3-0.3,0.7-0.6,0.7S8.2,19.3,8.2,19
				V7.8c0-0.3,0.3-0.7,0.6-0.7s0.6,0.3,0.6,0.7V19z M20.4,4h-4.1V2.6c0-0.9-0.6-1.6-1.5-1.6H9.2C8.4,1,7.7,1.7,7.7,2.6V4H3.6
				C3.3,4,3,4.3,3,4.7C3,5,3.3,5.4,3.6,5.4h0.8l0.5,15.5C5,22.1,5.8,23,6.9,23h10.2c1.1,0,1.9-0.9,1.9-2.1l0.5-15.5h0.8
				C20.7,5.4,21,5,21,4.7C21.1,4.2,20.8,4,20.4,4L20.4,4z"/>
		</g>
	</g>
</g>
</svg>
