<?xml version="1.0" encoding="utf-8"?>
<!-- Generator: Adobe Illustrator 21.1.0, SVG Export Plug-In . SVG Version: 6.00 Build 0)  -->
<svg version="1.1" id="圖層_1" xmlns="http://www.w3.org/2000/svg" xmlns:xlink="http://www.w3.org/1999/xlink" x="0px" y="0px"
	 viewBox="0 0 24 24" style="enable-background:new 0 0 24 24;" xml:space="preserve">
<style type="text/css">
	.st0{fill:#FFFFFF;}
	.st1{fill:#333333;}
</style>
<g>
	<path id="path-1" class="st0" d="M6.8,20.3L8,19.1L4.9,16l-1.2,1.2v1.4h1.7v1.7H6.8z M13.7,8.1c0-0.2-0.1-0.3-0.3-0.3
		c-0.1,0-0.2,0-0.2,0.1L6,15c-0.1,0.1-0.1,0.1-0.1,0.2c0,0.2,0.1,0.3,0.3,0.3c0.1,0,0.2,0,0.2-0.1l7.2-7.2
		C13.7,8.2,13.7,8.1,13.7,8.1z M13,5.5l5.5,5.5l-11,11H2v-5.5L13,5.5z M22,6.8c0,0.4-0.2,0.9-0.5,1.2l-2.2,2.2l-5.5-5.5L16,2.5
		C16.3,2.2,16.8,2,17.2,2s0.9,0.2,1.2,0.5l3.1,3.1C21.8,5.9,22,6.3,22,6.8z"/>
</g>
<title>⚙️/icon/function/08 edit</title>
<desc>Created with Sketch.</desc>
<g id="Page-1">
	<g id="_x2699__xFE0F__x2F_icon_x2F_function_x2F_08-edit">
		<g id="_xF040_">
			<path id="path-1_1_" class="st1" d="M6.8,20.3L8,19.1L4.9,16l-1.2,1.2v1.4h1.7v1.7H6.8z M13.7,8.1c0-0.2-0.1-0.3-0.3-0.3
				c-0.1,0-0.2,0-0.2,0.1L6,15c-0.1,0.1-0.1,0.1-0.1,0.2c0,0.2,0.1,0.3,0.3,0.3c0.1,0,0.2,0,0.2-0.1l7.2-7.2
				C13.7,8.2,13.7,8.1,13.7,8.1z M13,5.5l5.5,5.5l-11,11H2v-5.5L13,5.5z M22,6.8c0,0.4-0.2,0.9-0.5,1.2l-2.2,2.2l-5.5-5.5L16,2.5
				C16.3,2.2,16.8,2,17.2,2s0.9,0.2,1.2,0.5l3.1,3.1C21.8,5.9,22,6.3,22,6.8z"/>
		</g>
	</g>
</g>
</svg>
