<?xml version="1.0" encoding="utf-8"?>
<!-- Generator: Adobe Illustrator 21.1.0, SVG Export Plug-In . SVG Version: 6.00 Build 0)  -->
<svg version="1.1" id="圖層_1" xmlns="http://www.w3.org/2000/svg" xmlns:xlink="http://www.w3.org/1999/xlink" x="0px" y="0px"
	 viewBox="0 0 24 24" style="enable-background:new 0 0 24 24;" xml:space="preserve">
<style type="text/css">
	.st0{fill:#333333;}
</style>
<title>⚙️/icon/furniture/08 digi-lock</title>
<desc>Created with Sketch.</desc>
<path class="st0" d="M18.4,10.3h-1.3V6.1c0-2.9-2.3-5.1-5.1-5.1C9.1,1,6.8,3.3,6.8,6.1v4.1H5.7C5.3,10.3,5,10.6,5,11v11.4
	C5,22.7,5.3,23,5.7,23h12.7c0.4,0,0.7-0.3,0.7-0.7V11C19.1,10.6,18.8,10.3,18.4,10.3z M8.9,6.1c0-1.7,1.3-3,3-3s3,1.3,3,3v4.1h-6
	V6.1z M13.3,11.5l-1.6,5.7H8L13.3,11.5z M10.8,21.6l1.6-5.6h3.7L10.8,21.6z"/>
</svg>
