<?xml version="1.0" encoding="utf-8"?>
<!-- Generator: Adobe Illustrator 21.1.0, SVG Export Plug-In . SVG Version: 6.00 Build 0)  -->
<svg version="1.1" id="圖層_1" xmlns="http://www.w3.org/2000/svg" xmlns:xlink="http://www.w3.org/1999/xlink" x="0px" y="0px"
	 viewBox="0 0 24 24" style="enable-background:new 0 0 24 24;" xml:space="preserve">
<style type="text/css">
	.st0{fill:#FFFFFF;}
	.st1{fill:#333333;}
</style>
<g>
	<path id="path-1" class="st0" d="M19.4,1H4.6C4.4,1,4.2,1,4,1.1C3.4,1.4,3,2,3,2.6v18.7c0,0.7,0.4,1.3,1,1.5C4.2,23,4.4,23,4.6,23
		c0.4,0,0.8-0.2,1.2-0.5l6.2-6.2l6.2,6.2c0.3,0.3,0.7,0.5,1.2,0.5c0.2,0,0.4,0,0.6-0.1c0.6-0.2,1-0.8,1-1.5V2.6c0-0.7-0.4-1.3-1-1.5
		C19.8,1,19.6,1,19.4,1z"/>
</g>
<title>⚙️/icon/function/18 加強曝光</title>
<desc>Created with Sketch.</desc>
<g id="Page-1">
	<g id="_x2699__xFE0F__x2F_icon_x2F_function_x2F_18-加強曝光">
		<g id="_xF02E_">
			<path id="path-1_1_" class="st1" d="M19.4,1H4.6C4.4,1,4.2,1,4,1.1C3.4,1.4,3,2,3,2.6v18.7c0,0.7,0.4,1.3,1,1.5
				C4.2,23,4.4,23,4.6,23c0.4,0,0.8-0.2,1.2-0.5l6.2-6.2l6.2,6.2c0.3,0.3,0.7,0.5,1.2,0.5c0.2,0,0.4,0,0.6-0.1c0.6-0.2,1-0.8,1-1.5
				V2.6c0-0.7-0.4-1.3-1-1.5C19.8,1,19.6,1,19.4,1z"/>
		</g>
	</g>
</g>
</svg>
