<?xml version="1.0" encoding="utf-8"?>
<!-- Generator: Adobe Illustrator 21.1.0, SVG Export Plug-In . SVG Version: 6.00 Build 0)  -->
<svg version="1.1" id="圖層_1" xmlns="http://www.w3.org/2000/svg" xmlns:xlink="http://www.w3.org/1999/xlink" x="0px" y="0px"
	 viewBox="0 0 24 24" style="enable-background:new 0 0 24 24;" xml:space="preserve">
<style type="text/css">
	.st0{fill:#FFFFFF;}
	.st1{fill:#333333;}
</style>
<g>
	<path id="path-1" class="st0" d="M6.4,22.4C6,22.8,5.5,23,5,23c-0.3,0-0.5-0.1-0.7-0.2C3.5,22.5,3,21.8,3,21V3
		c0-0.8,0.5-1.6,1.2-1.8C4.5,1.1,4.7,1,5,1h14c0.3,0,0.5,0.1,0.7,0.2C20.5,1.5,21,2.2,21,3v18c0,0.8-0.5,1.6-1.2,1.8
		C19.5,22.9,19.3,23,19,23c-0.5,0-1-0.2-1.4-0.6L12,16.8L6.4,22.4z M19,1.9H5c-0.1,0-0.3,0-0.4,0.1C4.1,2.2,3.9,2.6,3.9,3v18
		c0,0.4,0.3,0.9,0.7,1c0.1,0.1,0.3,0.1,0.4,0.1c0.3,0,0.6-0.1,0.8-0.3l6.2-6.2l0.3,0.3l5.9,5.9c0.2,0.2,0.5,0.3,0.8,0.3
		c0.2,0,0.3,0,0.4-0.1c0.4-0.2,0.7-0.6,0.7-1V3c0-0.4-0.3-0.9-0.7-1C19.3,1.9,19.2,1.9,19,1.9z"/>
</g>
<title>⚙️/icon/sidebar/21 加強曝光</title>
<desc>Created with Sketch.</desc>
<g id="Page-1">
	<g id="_x2699__xFE0F__x2F_icon_x2F_sidebar_x2F_21-加強曝光">
		<g id="_xF02E_">
			<path id="path-1_1_" class="st1" d="M6.4,22.4C6,22.8,5.5,23,5,23c-0.3,0-0.5-0.1-0.7-0.2C3.5,22.5,3,21.8,3,21V3
				c0-0.8,0.5-1.6,1.2-1.8C4.5,1.1,4.7,1,5,1h14c0.3,0,0.5,0.1,0.7,0.2C20.5,1.5,21,2.2,21,3v18c0,0.8-0.5,1.6-1.2,1.8
				C19.5,22.9,19.3,23,19,23c-0.5,0-1-0.2-1.4-0.6L12,16.8L6.4,22.4z M19,1.9H5c-0.1,0-0.3,0-0.4,0.1C4.1,2.2,3.9,2.6,3.9,3v18
				c0,0.4,0.3,0.9,0.7,1c0.1,0.1,0.3,0.1,0.4,0.1c0.3,0,0.6-0.1,0.8-0.3l6.2-6.2l0.3,0.3l5.9,5.9c0.2,0.2,0.5,0.3,0.8,0.3
				c0.2,0,0.3,0,0.4-0.1c0.4-0.2,0.7-0.6,0.7-1V3c0-0.4-0.3-0.9-0.7-1C19.3,1.9,19.2,1.9,19,1.9z"/>
		</g>
	</g>
</g>
</svg>
