<?xml version="1.0" encoding="utf-8"?>
<!-- Generator: Adobe Illustrator 21.1.0, SVG Export Plug-In . SVG Version: 6.00 Build 0)  -->
<svg version="1.1" id="圖層_1" xmlns="http://www.w3.org/2000/svg" xmlns:xlink="http://www.w3.org/1999/xlink" x="0px" y="0px"
	 viewBox="0 0 24 24" style="enable-background:new 0 0 24 24;" xml:space="preserve">
<style type="text/css">
	.st0{fill:#FFFFFF;}
	.st1{fill:#333333;}
</style>
<g>
	<path id="path-1" class="st0" d="M5.8,18.8c1.6,1.5,3.8,2.4,6.2,2.4c5.1,0,9.2-4.1,9.2-9.2c0-2.4-0.9-4.6-2.4-6.2L5.8,18.8z
		 M5.2,18.2l13-13c-1.6-1.5-3.8-2.4-6.2-2.4c-5.1,0-9.2,4.1-9.2,9.2C2.8,14.4,3.7,16.6,5.2,18.2z M12,22C6.5,22,2,17.5,2,12
		S6.5,2,12,2s10,4.5,10,10S17.5,22,12,22z"/>
</g>
<title>⚙️/icon/furniture/17 empty</title>
<desc>Created with Sketch.</desc>
<g id="Page-1">
	<g id="_x2699__xFE0F__x2F_icon_x2F_furniture_x2F_17-empty">
		<g id="Combined-Shape">
			<path id="path-1_1_" class="st1" d="M5.8,18.8c1.6,1.5,3.8,2.4,6.2,2.4c5.1,0,9.2-4.1,9.2-9.2c0-2.4-0.9-4.6-2.4-6.2L5.8,18.8z
				 M5.2,18.2l13-13c-1.6-1.5-3.8-2.4-6.2-2.4c-5.1,0-9.2,4.1-9.2,9.2C2.8,14.4,3.7,16.6,5.2,18.2z M12,22C6.5,22,2,17.5,2,12
				S6.5,2,12,2s10,4.5,10,10S17.5,22,12,22z"/>
		</g>
	</g>
</g>
</svg>
