<?xml version="1.0" encoding="utf-8"?>
<!-- Generator: Adobe Illustrator 21.1.0, SVG Export Plug-In . SVG Version: 6.00 Build 0)  -->
<svg version="1.1" id="圖層_1" xmlns="http://www.w3.org/2000/svg" xmlns:xlink="http://www.w3.org/1999/xlink" x="0px" y="0px"
	 viewBox="0 0 24 24" style="enable-background:new 0 0 24 24;" xml:space="preserve">
<style type="text/css">
	.st0{fill:#FFFFFF;}
	.st1{fill:#333333;}
</style>
<g>
	<path id="path-1" class="st0" d="M7.7,1.3h8.6c3.5,0,6.4,2.9,6.4,6.4v8.6c0,3.5-2.9,6.4-6.4,6.4H7.7c-3.5,0-6.4-2.9-6.4-6.4V7.7
		C1.3,4.2,4.2,1.3,7.7,1.3z M3.5,16.3c0,2.3,1.9,4.2,4.2,4.2h8.6c2.3,0,4.2-1.9,4.2-4.2V7.7c0-2.3-1.9-4.2-4.2-4.2H7.7
		c-2.3,0-4.2,1.9-4.2,4.2V16.3z M16.2,6.5c0-0.7,0.6-1.3,1.3-1.3c0.7,0,1.3,0.6,1.3,1.3c0,0.7-0.6,1.3-1.3,1.3
		C16.8,7.8,16.2,7.3,16.2,6.5z M6.5,12c0,3,2.5,5.5,5.5,5.5l0,0c3,0,5.5-2.5,5.5-5.5l0,0c0-3-2.5-5.5-5.5-5.5l0,0
		C9,6.5,6.5,9,6.5,12 M8.6,12c0-1.9,1.5-3.4,3.4-3.4l0,0c1.9,0,3.4,1.5,3.4,3.4l0,0c0,1.9-1.5,3.4-3.4,3.4l0,0
		C10.1,15.4,8.6,13.9,8.6,12"/>
</g>
<title>⚙️/icon/function/25 IG</title>
<desc>Created with Sketch.</desc>
<g id="Page-1">
	<g id="_x2699__xFE0F__x2F_icon_x2F_function_x2F_25-IG">
		<g id="Combined-Shape">
			<path id="path-1_1_" class="st1" d="M7.7,1.3h8.6c3.5,0,6.4,2.9,6.4,6.4v8.6c0,3.5-2.9,6.4-6.4,6.4H7.7c-3.5,0-6.4-2.9-6.4-6.4
				V7.7C1.3,4.2,4.2,1.3,7.7,1.3z M3.5,16.3c0,2.3,1.9,4.2,4.2,4.2h8.6c2.3,0,4.2-1.9,4.2-4.2V7.7c0-2.3-1.9-4.2-4.2-4.2H7.7
				c-2.3,0-4.2,1.9-4.2,4.2V16.3z M16.2,6.5c0-0.7,0.6-1.3,1.3-1.3c0.7,0,1.3,0.6,1.3,1.3c0,0.7-0.6,1.3-1.3,1.3
				C16.8,7.8,16.2,7.3,16.2,6.5z M6.5,12c0,3,2.5,5.5,5.5,5.5l0,0c3,0,5.5-2.5,5.5-5.5l0,0c0-3-2.5-5.5-5.5-5.5l0,0
				C9,6.5,6.5,9,6.5,12 M8.6,12c0-1.9,1.5-3.4,3.4-3.4l0,0c1.9,0,3.4,1.5,3.4,3.4l0,0c0,1.9-1.5,3.4-3.4,3.4l0,0
				C10.1,15.4,8.6,13.9,8.6,12"/>
		</g>
	</g>
</g>
</svg>
