<?xml version="1.0" encoding="utf-8"?>
<!-- Generator: Adobe Illustrator 21.1.0, SVG Export Plug-In . SVG Version: 6.00 Build 0)  -->
<svg version="1.1" id="圖層_1" xmlns="http://www.w3.org/2000/svg" xmlns:xlink="http://www.w3.org/1999/xlink" x="0px" y="0px"
	 viewBox="0 0 24 24" style="enable-background:new 0 0 24 24;" xml:space="preserve">
<style type="text/css">
	.st0{fill:#FFFFFF;}
	.st1{fill:#333333;}
</style>
<g>
	<path id="path-1" class="st0" d="M3.4,12c0,0.3-0.2,0.5-0.5,0.5H0.5C0.2,12.5,0,12.3,0,12s0.2-0.5,0.5-0.5h2.4
		C3.1,11.5,3.4,11.7,3.4,12z M23.5,11.5c0.3,0,0.5,0.2,0.5,0.5s-0.2,0.5-0.5,0.5h-2.4c-0.3,0-0.5-0.2-0.5-0.5s0.2-0.5,0.5-0.5H23.5z
		 M12,20.6c0.3,0,0.5,0.2,0.5,0.5v2.4c0,0.3-0.2,0.5-0.5,0.5s-0.5-0.2-0.5-0.5v-2.4C11.5,20.9,11.7,20.6,12,20.6z M12,3.4
		c-0.3,0-0.5-0.2-0.5-0.5V0.5C11.5,0.2,11.7,0,12,0s0.5,0.2,0.5,0.5v2.4C12.5,3.1,12.3,3.4,12,3.4z M3.9,16.1
		c0.2-0.1,0.5-0.1,0.7,0.2c0.1,0.2,0.1,0.5-0.2,0.7l-2.1,1.2c-0.1,0-0.2,0.1-0.2,0.1c-0.2,0-0.3-0.1-0.4-0.2
		c-0.1-0.2-0.1-0.5,0.2-0.7L3.9,16.1z M19.9,7.9c-0.2,0-0.3-0.1-0.4-0.2c-0.1-0.2-0.1-0.5,0.2-0.7l2.1-1.2C22,5.7,22.3,5.8,22.4,6
		s0.1,0.5-0.2,0.7l-2.1,1.2C20.1,7.9,20,7.9,19.9,7.9z M17,19.7l1.2,2.1c0.1,0.2,0.1,0.5-0.2,0.7c-0.1,0-0.2,0.1-0.2,0.1
		c-0.2,0-0.3-0.1-0.4-0.2l-1.2-2.1c-0.1-0.2-0.1-0.5,0.2-0.7C16.5,19.3,16.8,19.4,17,19.7z M7,4.3L5.8,2.3C5.7,2,5.8,1.7,6,1.6
		c0.2-0.1,0.5-0.1,0.7,0.2l1.2,2.1C8,4.1,7.9,4.4,7.7,4.5c-0.1,0-0.2,0.1-0.2,0.1C7.3,4.6,7.1,4.5,7,4.3z M7.7,19.5
		c0.2,0.1,0.3,0.4,0.2,0.7l-1.2,2.1c-0.1,0.2-0.3,0.2-0.4,0.2c-0.1,0-0.2,0-0.2-0.1c-0.2-0.1-0.3-0.4-0.2-0.7L7,19.7
		C7.2,19.4,7.5,19.3,7.7,19.5z M16.3,4.5c-0.2-0.1-0.3-0.4-0.2-0.7l1.2-2.1c0.1-0.2,0.4-0.3,0.7-0.2c0.2,0.1,0.3,0.4,0.2,0.7L17,4.3
		c-0.1,0.2-0.3,0.2-0.4,0.2C16.5,4.6,16.4,4.6,16.3,4.5z M22.2,17.3c0.2,0.1,0.3,0.4,0.2,0.7c-0.1,0.2-0.3,0.2-0.4,0.2
		c-0.1,0-0.2,0-0.2-0.1L19.7,17c-0.2-0.1-0.3-0.4-0.2-0.7c0.1-0.2,0.4-0.3,0.7-0.2L22.2,17.3z M4.3,7c0.2,0.1,0.3,0.4,0.2,0.7
		C4.4,7.8,4.3,7.9,4.1,7.9c-0.1,0-0.2,0-0.2-0.1L1.8,6.7C1.6,6.5,1.5,6.2,1.6,6C1.7,5.8,2,5.7,2.3,5.8L4.3,7z M12.5,18.3V5.7
		c3.2,0.2,5.8,3,5.8,6.3S15.7,18,12.5,18.3 M5.7,12c0-3.3,2.6-6,5.8-6.3v12.5C8.3,18,5.7,15.3,5.7,12 M12,4.8C8,4.8,4.8,8,4.8,12
		c0,4,3.2,7.2,7.2,7.2s7.2-3.2,7.2-7.2C19.2,8,16,4.8,12,4.8"/>
</g>
<title>⚙️/icon/function/12 lightening</title>
<desc>Created with Sketch.</desc>
<g id="Page-1">
	<g id="_x2699__xFE0F__x2F_icon_x2F_function_x2F_12-lightening">
		<g id="Fill-25">
			<path id="path-1_1_" class="st1" d="M3.4,12c0,0.3-0.2,0.5-0.5,0.5H0.5C0.2,12.5,0,12.3,0,12s0.2-0.5,0.5-0.5h2.4
				C3.1,11.5,3.4,11.7,3.4,12z M23.5,11.5c0.3,0,0.5,0.2,0.5,0.5s-0.2,0.5-0.5,0.5h-2.4c-0.3,0-0.5-0.2-0.5-0.5s0.2-0.5,0.5-0.5
				H23.5z M12,20.6c0.3,0,0.5,0.2,0.5,0.5v2.4c0,0.3-0.2,0.5-0.5,0.5s-0.5-0.2-0.5-0.5v-2.4C11.5,20.9,11.7,20.6,12,20.6z M12,3.4
				c-0.3,0-0.5-0.2-0.5-0.5V0.5C11.5,0.2,11.7,0,12,0s0.5,0.2,0.5,0.5v2.4C12.5,3.1,12.3,3.4,12,3.4z M3.9,16.1
				c0.2-0.1,0.5-0.1,0.7,0.2c0.1,0.2,0.1,0.5-0.2,0.7l-2.1,1.2c-0.1,0-0.2,0.1-0.2,0.1c-0.2,0-0.3-0.1-0.4-0.2
				c-0.1-0.2-0.1-0.5,0.2-0.7L3.9,16.1z M19.9,7.9c-0.2,0-0.3-0.1-0.4-0.2c-0.1-0.2-0.1-0.5,0.2-0.7l2.1-1.2C22,5.7,22.3,5.8,22.4,6
				s0.1,0.5-0.2,0.7l-2.1,1.2C20.1,7.9,20,7.9,19.9,7.9z M17,19.7l1.2,2.1c0.1,0.2,0.1,0.5-0.2,0.7c-0.1,0-0.2,0.1-0.2,0.1
				c-0.2,0-0.3-0.1-0.4-0.2l-1.2-2.1c-0.1-0.2-0.1-0.5,0.2-0.7C16.5,19.3,16.8,19.4,17,19.7z M7,4.3L5.8,2.3C5.7,2,5.8,1.7,6,1.6
				c0.2-0.1,0.5-0.1,0.7,0.2l1.2,2.1C8,4.1,7.9,4.4,7.7,4.5c-0.1,0-0.2,0.1-0.2,0.1C7.3,4.6,7.1,4.5,7,4.3z M7.7,19.5
				c0.2,0.1,0.3,0.4,0.2,0.7l-1.2,2.1c-0.1,0.2-0.3,0.2-0.4,0.2c-0.1,0-0.2,0-0.2-0.1c-0.2-0.1-0.3-0.4-0.2-0.7L7,19.7
				C7.2,19.4,7.5,19.3,7.7,19.5z M16.3,4.5c-0.2-0.1-0.3-0.4-0.2-0.7l1.2-2.1c0.1-0.2,0.4-0.3,0.7-0.2c0.2,0.1,0.3,0.4,0.2,0.7
				L17,4.3c-0.1,0.2-0.3,0.2-0.4,0.2C16.5,4.6,16.4,4.6,16.3,4.5z M22.2,17.3c0.2,0.1,0.3,0.4,0.2,0.7c-0.1,0.2-0.3,0.2-0.4,0.2
				c-0.1,0-0.2,0-0.2-0.1L19.7,17c-0.2-0.1-0.3-0.4-0.2-0.7c0.1-0.2,0.4-0.3,0.7-0.2L22.2,17.3z M4.3,7c0.2,0.1,0.3,0.4,0.2,0.7
				C4.4,7.8,4.3,7.9,4.1,7.9c-0.1,0-0.2,0-0.2-0.1L1.8,6.7C1.6,6.5,1.5,6.2,1.6,6C1.7,5.8,2,5.7,2.3,5.8L4.3,7z M12.5,18.3V5.7
				c3.2,0.2,5.8,3,5.8,6.3S15.7,18,12.5,18.3 M5.7,12c0-3.3,2.6-6,5.8-6.3v12.5C8.3,18,5.7,15.3,5.7,12 M12,4.8C8,4.8,4.8,8,4.8,12
				c0,4,3.2,7.2,7.2,7.2s7.2-3.2,7.2-7.2C19.2,8,16,4.8,12,4.8"/>
		</g>
	</g>
</g>
</svg>
