<?xml version="1.0" encoding="utf-8"?>
<!-- Generator: Adobe Illustrator 21.1.0, SVG Export Plug-In . SVG Version: 6.00 Build 0)  -->
<svg version="1.1" id="圖層_1" xmlns="http://www.w3.org/2000/svg" xmlns:xlink="http://www.w3.org/1999/xlink" x="0px" y="0px"
	 viewBox="0 0 24 24" style="enable-background:new 0 0 24 24;" xml:space="preserve">
<style type="text/css">
	.st0{fill:#FFFFFF;}
	.st1{fill:#333333;}
</style>
<g>
	<path id="path-1" class="st0" d="M4.1,12c0,0.2-0.2,0.4-0.4,0.4H1.4C1.2,12.4,1,12.2,1,12s0.2-0.4,0.4-0.4h2.2
		C3.9,11.6,4.1,11.8,4.1,12z M22.6,11.6c0.2,0,0.4,0.2,0.4,0.4s-0.2,0.4-0.4,0.4h-2.2c-0.2,0-0.4-0.2-0.4-0.4s0.2-0.4,0.4-0.4H22.6z
		 M12,19.9c0.2,0,0.4,0.2,0.4,0.4v2.2c0,0.2-0.2,0.4-0.4,0.4s-0.4-0.2-0.4-0.4v-2.2C11.6,20.1,11.8,19.9,12,19.9z M12,4.1
		c-0.2,0-0.4-0.2-0.4-0.4V1.4C11.6,1.2,11.8,1,12,1s0.4,0.2,0.4,0.4v2.2C12.4,3.9,12.2,4.1,12,4.1z M4.5,15.8c0.2-0.1,0.5,0,0.6,0.2
		c0.1,0.2,0,0.5-0.2,0.6l-1.9,1.1c-0.1,0-0.1,0.1-0.2,0.1c-0.2,0-0.3-0.1-0.4-0.2c-0.1-0.2,0-0.5,0.2-0.6L4.5,15.8z M19.2,8.3
		c-0.2,0-0.3-0.1-0.4-0.2c-0.1-0.2,0-0.5,0.2-0.6l1.9-1.1c0.2-0.1,0.5,0,0.6,0.2c0.1,0.2,0,0.5-0.2,0.6l-1.9,1.1
		C19.4,8.2,19.3,8.3,19.2,8.3z M16.6,19l1.1,1.9c0.1,0.2,0,0.5-0.2,0.6c-0.1,0-0.1,0.1-0.2,0.1c-0.2,0-0.3-0.1-0.4-0.2l-1.1-1.9
		c-0.1-0.2,0-0.5,0.2-0.6C16.2,18.7,16.4,18.8,16.6,19z M7.4,5L6.3,3.1c-0.1-0.2,0-0.5,0.2-0.6C6.7,2.4,7,2.4,7.1,2.6l1.1,1.9
		C8.3,4.8,8.3,5,8,5.1C8,5.2,7.9,5.2,7.8,5.2C7.7,5.2,7.5,5.1,7.4,5z M8,18.9c0.2,0.1,0.3,0.4,0.2,0.6l-1.1,1.9
		c-0.1,0.1-0.2,0.2-0.4,0.2c-0.1,0-0.2,0-0.2-0.1c-0.2-0.1-0.3-0.4-0.2-0.6L7.4,19C7.6,18.8,7.8,18.7,8,18.9z M16,5.1
		c-0.2-0.1-0.3-0.4-0.2-0.6l1.1-1.9c0.1-0.2,0.4-0.3,0.6-0.2c0.2,0.1,0.3,0.4,0.2,0.6L16.6,5c-0.1,0.1-0.2,0.2-0.4,0.2
		C16.1,5.2,16,5.2,16,5.1z M21.4,16.9c0.2,0.1,0.3,0.4,0.2,0.6c-0.1,0.1-0.2,0.2-0.4,0.2c-0.1,0-0.2,0-0.2-0.1L19,16.6
		c-0.2-0.1-0.3-0.4-0.2-0.6c0.1-0.2,0.4-0.3,0.6-0.2L21.4,16.9z M5,7.4C5.2,7.6,5.3,7.8,5.1,8C5.1,8.2,4.9,8.3,4.8,8.3
		c-0.1,0-0.2,0-0.2-0.1L2.6,7.1C2.4,7,2.4,6.7,2.5,6.5c0.1-0.2,0.4-0.3,0.6-0.2L5,7.4z M12,17.7c3.2,0,5.7-2.6,5.7-5.7
		S15.2,6.3,12,6.3S6.3,8.8,6.3,12S8.8,17.7,12,17.7z M12,18.6c-3.6,0-6.6-3-6.6-6.6s3-6.6,6.6-6.6s6.6,3,6.6,6.6S15.6,18.6,12,18.6z
		"/>
</g>
<title>⚙️/icon/function/14 light</title>
<desc>Created with Sketch.</desc>
<g id="Page-1">
	<g id="_x2699__xFE0F__x2F_icon_x2F_function_x2F_14-light">
		<g id="Oval-2">
			<path id="path-1_1_" class="st1" d="M4.1,12c0,0.2-0.2,0.4-0.4,0.4H1.4C1.2,12.4,1,12.2,1,12s0.2-0.4,0.4-0.4h2.2
				C3.9,11.6,4.1,11.8,4.1,12z M22.6,11.6c0.2,0,0.4,0.2,0.4,0.4s-0.2,0.4-0.4,0.4h-2.2c-0.2,0-0.4-0.2-0.4-0.4s0.2-0.4,0.4-0.4
				H22.6z M12,19.9c0.2,0,0.4,0.2,0.4,0.4v2.2c0,0.2-0.2,0.4-0.4,0.4s-0.4-0.2-0.4-0.4v-2.2C11.6,20.1,11.8,19.9,12,19.9z M12,4.1
				c-0.2,0-0.4-0.2-0.4-0.4V1.4C11.6,1.2,11.8,1,12,1s0.4,0.2,0.4,0.4v2.2C12.4,3.9,12.2,4.1,12,4.1z M4.5,15.8
				c0.2-0.1,0.5,0,0.6,0.2c0.1,0.2,0,0.5-0.2,0.6l-1.9,1.1c-0.1,0-0.1,0.1-0.2,0.1c-0.2,0-0.3-0.1-0.4-0.2c-0.1-0.2,0-0.5,0.2-0.6
				L4.5,15.8z M19.2,8.3c-0.2,0-0.3-0.1-0.4-0.2c-0.1-0.2,0-0.5,0.2-0.6l1.9-1.1c0.2-0.1,0.5,0,0.6,0.2c0.1,0.2,0,0.5-0.2,0.6
				l-1.9,1.1C19.4,8.2,19.3,8.3,19.2,8.3z M16.6,19l1.1,1.9c0.1,0.2,0,0.5-0.2,0.6c-0.1,0-0.1,0.1-0.2,0.1c-0.2,0-0.3-0.1-0.4-0.2
				l-1.1-1.9c-0.1-0.2,0-0.5,0.2-0.6C16.2,18.7,16.4,18.8,16.6,19z M7.4,5L6.3,3.1c-0.1-0.2,0-0.5,0.2-0.6C6.7,2.4,7,2.4,7.1,2.6
				l1.1,1.9C8.3,4.8,8.3,5,8,5.1C8,5.2,7.9,5.2,7.8,5.2C7.7,5.2,7.5,5.1,7.4,5z M8,18.9c0.2,0.1,0.3,0.4,0.2,0.6l-1.1,1.9
				c-0.1,0.1-0.2,0.2-0.4,0.2c-0.1,0-0.2,0-0.2-0.1c-0.2-0.1-0.3-0.4-0.2-0.6L7.4,19C7.6,18.8,7.8,18.7,8,18.9z M16,5.1
				c-0.2-0.1-0.3-0.4-0.2-0.6l1.1-1.9c0.1-0.2,0.4-0.3,0.6-0.2c0.2,0.1,0.3,0.4,0.2,0.6L16.6,5c-0.1,0.1-0.2,0.2-0.4,0.2
				C16.1,5.2,16,5.2,16,5.1z M21.4,16.9c0.2,0.1,0.3,0.4,0.2,0.6c-0.1,0.1-0.2,0.2-0.4,0.2c-0.1,0-0.2,0-0.2-0.1L19,16.6
				c-0.2-0.1-0.3-0.4-0.2-0.6c0.1-0.2,0.4-0.3,0.6-0.2L21.4,16.9z M5,7.4C5.2,7.6,5.3,7.8,5.1,8C5.1,8.2,4.9,8.3,4.8,8.3
				c-0.1,0-0.2,0-0.2-0.1L2.6,7.1C2.4,7,2.4,6.7,2.5,6.5c0.1-0.2,0.4-0.3,0.6-0.2L5,7.4z M12,17.7c3.2,0,5.7-2.6,5.7-5.7
				S15.2,6.3,12,6.3S6.3,8.8,6.3,12S8.8,17.7,12,17.7z M12,18.6c-3.6,0-6.6-3-6.6-6.6s3-6.6,6.6-6.6s6.6,3,6.6,6.6
				S15.6,18.6,12,18.6z"/>
		</g>
	</g>
</g>
</svg>
