<?xml version="1.0" encoding="utf-8"?>
<!-- Generator: Adobe Illustrator 22.1.0, SVG Export Plug-In . SVG Version: 6.00 Build 0)  -->
<svg version="1.1" id="圖層_1" xmlns="http://www.w3.org/2000/svg" xmlns:xlink="http://www.w3.org/1999/xlink" x="0px" y="0px"
	 viewBox="0 0 46 37" style="enable-background:new 0 0 46 37;" xml:space="preserve">
<g>
	<path id="SVGID_1_" d="M5.3,18.5c-0.4-0.3-0.4-0.9,0-1.2l6.2-5.9c0.4-0.3,0.9-0.3,1.3,0s0.4,0.9,0,1.2L8.1,17h17.1
			c0.5,0,0.9,0.4,0.9,0.9s-0.4,0.9-0.9,0.9H8.1l4.7,4.4c0.4,0.3,0.4,0.9,0,1.2c-0.2,0.2-0.4,0.3-0.6,0.3c-0.2,0-0.5-0.1-0.6-0.3
			L5.3,18.5z M41,27.5c0,2.5-2,4.5-4.5,4.5H21.9c-2.5,0-4.5-2-4.5-4.5v-2.9c0-0.5,0.4-0.9,0.9-0.9c0.5,0,0.9,0.4,0.9,0.9v2.9
			c0,1.5,1.2,2.7,2.7,2.7h14.6c1.5,0,2.7-1.2,2.7-2.7v-18c0-1.5-1.2-2.7-2.7-2.7H21.9c-1.5,0-2.7,1.2-2.7,2.7v2.9
			c0,0.5-0.4,0.9-0.9,0.9c-0.5,0-0.9-0.4-0.9-0.9V9.5c0-2.5,2-4.5,4.5-4.5h14.6C39,5,41,7,41,9.5V27.5z"/>
</g>
</svg>
