<?xml version="1.0" encoding="utf-8"?>
<!-- Generator: Adobe Illustrator 21.1.0, SVG Export Plug-In . SVG Version: 6.00 Build 0)  -->
<svg version="1.1" id="圖層_1" xmlns="http://www.w3.org/2000/svg" xmlns:xlink="http://www.w3.org/1999/xlink" x="0px" y="0px"
	 viewBox="0 0 24 24" style="enable-background:new 0 0 24 24;" xml:space="preserve">
<style type="text/css">
	.st0{fill:#231815;}
</style>
<g>
	<path class="st0" d="M3.7,21.3c-0.5,0-0.8-0.2-1-0.4c-0.5-0.4-0.5-1.1-0.5-1.1V4.1c0-0.6,0.3-1,0.5-1.2c0.5-0.4,1.1-0.4,1.2-0.3
		l5.4,0.7v17.4L4,21.3C3.9,21.3,3.8,21.3,3.7,21.3z M3.7,3.6c-0.1,0-0.3,0-0.4,0.1C3.2,3.8,3.2,3.9,3.2,4.1v15.7
		c0,0.1,0,0.3,0.2,0.4c0.1,0.1,0.3,0.1,0.5,0.1l4.5-0.5V4.2L3.7,3.6C3.7,3.6,3.7,3.6,3.7,3.6z"/>
	<path class="st0" d="M14.8,21.6C14.8,21.6,14.7,21.6,14.8,21.6l-6.1-0.9c-0.2,0-0.4-0.2-0.4-0.5V3.7c0-0.3,0.2-0.5,0.4-0.5l6.1-0.8
		c0.2,0,0.3,0,0.4,0.1c0.1,0.1,0.2,0.2,0.2,0.4l-0.1,18.2c0,0.1-0.1,0.3-0.2,0.4C15,21.5,14.9,21.6,14.8,21.6z M9.3,19.8l5,0.8
		l0.1-17L9.3,4.1V19.8z"/>
	<path class="st0" d="M15,21.6c-0.1,0-0.2,0-0.3-0.1c-0.1-0.1-0.2-0.2-0.2-0.4l0.1-18.3c0-0.1,0.1-0.3,0.2-0.4
		c0.1-0.1,0.3-0.1,0.4-0.1l5.2,0.7c0.5,0.1,1.4,0.4,1.5,1.6l0,14.7c-0.1,0.5-0.4,1.3-1.3,1.6L15,21.6C15,21.6,15,21.6,15,21.6z
		 M15.6,3.4l-0.1,17.1l4.9-0.6c0.4-0.1,0.5-0.7,0.5-0.7l0-14.6c0-0.5-0.6-0.6-0.7-0.6L15.6,3.4z"/>
	<path class="st0" d="M6.1,17.9c-0.7,0-1.3-0.6-1.3-1.3s0.6-1.3,1.3-1.3s1.3,0.6,1.3,1.3S6.8,17.9,6.1,17.9z M6.1,16.2
		c-0.2,0-0.3,0.2-0.3,0.3c0,0.2,0.2,0.3,0.3,0.3c0.2,0,0.3-0.2,0.3-0.3C6.4,16.4,6.3,16.2,6.1,16.2z"/>
	<path class="st0" d="M12.2,12.2c-0.7,0-1.3-0.6-1.3-1.3s0.6-1.3,1.3-1.3s1.3,0.6,1.3,1.3S13,12.2,12.2,12.2z M12.2,10.5
		c-0.2,0-0.3,0.2-0.3,0.3c0,0.2,0.2,0.3,0.3,0.3c0.2,0,0.3-0.2,0.3-0.3C12.6,10.7,12.4,10.5,12.2,10.5z"/>
	<path class="st0" d="M18.2,11.2c-0.7,0-1.3-0.6-1.3-1.3s0.6-1.3,1.3-1.3s1.3,0.6,1.3,1.3S19,11.2,18.2,11.2z M18.2,9.5
		c-0.2,0-0.3,0.2-0.3,0.3c0,0.2,0.2,0.3,0.3,0.3c0.2,0,0.3-0.2,0.3-0.3C18.6,9.7,18.4,9.5,18.2,9.5z"/>
	<path class="st0" d="M7.2,17l-0.5-0.9l1.5-0.8l2.8-3.9l0.8,0.6L9,16c0,0.1-0.1,0.1-0.2,0.2L7.2,17z"/>
	<polygon class="st0" points="13.2,11.3 12.9,10.4 14.6,9.9 17.3,9.4 17.5,10.3 14.9,10.8 	"/>
</g>
</svg>
