<?xml version="1.0" encoding="utf-8"?>
<!-- Generator: Adobe Illustrator 21.1.0, SVG Export Plug-In . SVG Version: 6.00 Build 0)  -->
<svg version="1.1" id="圖層_1" xmlns="http://www.w3.org/2000/svg" xmlns:xlink="http://www.w3.org/1999/xlink" x="0px" y="0px"
	 viewBox="0 0 24 24" style="enable-background:new 0 0 24 24;" xml:space="preserve">
<style type="text/css">
	.st0{fill:#FFFFFF;}
	.st1{fill:#333333;}
</style>
<g>
	<path id="path-1" class="st0" d="M15.8,8.3c0-2-1.7-3.7-3.8-3.7S8.2,6.3,8.2,8.3S9.9,12,12,12S15.8,10.4,15.8,8.3z M19.5,8.3
		c0,0.9-0.1,1.8-0.5,2.6L13.7,22c-0.3,0.6-1,1-1.7,1s-1.4-0.4-1.7-1L5,10.9c-0.4-0.8-0.5-1.7-0.5-2.6C4.5,4.3,7.9,1,12,1
		S19.5,4.3,19.5,8.3z"/>
</g>
<title>⚙️/icon/function/21 地圖曝光</title>
<desc>Created with Sketch.</desc>
<g id="Page-1">
	<g id="_x2699__xFE0F__x2F_icon_x2F_function_x2F_21-地圖曝光">
		<g id="_xF041_">
			<path id="path-1_1_" class="st1" d="M15.8,8.3c0-2-1.7-3.7-3.8-3.7S8.2,6.3,8.2,8.3S9.9,12,12,12S15.8,10.4,15.8,8.3z M19.5,8.3
				c0,0.9-0.1,1.8-0.5,2.6L13.7,22c-0.3,0.6-1,1-1.7,1s-1.4-0.4-1.7-1L5,10.9c-0.4-0.8-0.5-1.7-0.5-2.6C4.5,4.3,7.9,1,12,1
				S19.5,4.3,19.5,8.3z"/>
		</g>
	</g>
</g>
</svg>
