<?xml version="1.0" encoding="utf-8"?>
<!-- Generator: Adobe Illustrator 21.1.0, SVG Export Plug-In . SVG Version: 6.00 Build 0)  -->
<svg version="1.1" id="圖層_1" xmlns="http://www.w3.org/2000/svg" xmlns:xlink="http://www.w3.org/1999/xlink" x="0px" y="0px"
	 viewBox="0 0 24 24" style="enable-background:new 0 0 24 24;" xml:space="preserve">
<style type="text/css">
	.st0{fill:#FFFFFF;}
	.st1{fill:#333333;}
</style>
<g>
	<path id="path-1" class="st0" d="M3,4h18l0,0c0.6,0,1,0.4,1,1v0.7l0,0c0,0.6-0.4,1-1,1H3c-0.6,0-1-0.4-1-1V5l0,0C2,4.4,2.4,4,3,4
		L3,4z M3,10.7h18c0.6,0,1,0.4,1,1v0.7c0,0.6-0.4,1-1,1H3c-0.6,0-1-0.4-1-1v-0.7l0,0C2,11.1,2.4,10.7,3,10.7L3,10.7z M3,17.3h18
		c0.6,0,1,0.4,1,1V19c0,0.6-0.4,1-1,1H3c-0.6,0-1-0.4-1-1v-0.7l0,0C2,17.8,2.4,17.3,3,17.3L3,17.3z"/>
</g>
<title>⚙️/icon/function/01 menu</title>
<desc>Created with Sketch.</desc>
<g id="Page-1">
	<g id="_x2699__xFE0F__x2F_icon_x2F_function_x2F_01-menu">
		<g id="Combined-Shape">
			<path id="path-1_1_" class="st1" d="M3,4h18l0,0c0.6,0,1,0.4,1,1v0.7l0,0c0,0.6-0.4,1-1,1H3c-0.6,0-1-0.4-1-1V5l0,0
				C2,4.4,2.4,4,3,4L3,4z M3,10.7h18c0.6,0,1,0.4,1,1v0.7c0,0.6-0.4,1-1,1H3c-0.6,0-1-0.4-1-1v-0.7l0,0C2,11.1,2.4,10.7,3,10.7
				L3,10.7z M3,17.3h18c0.6,0,1,0.4,1,1V19c0,0.6-0.4,1-1,1H3c-0.6,0-1-0.4-1-1v-0.7l0,0C2,17.8,2.4,17.3,3,17.3L3,17.3z"/>
		</g>
	</g>
</g>
</svg>
