<?xml version="1.0" encoding="utf-8"?>
<!-- Generator: Adobe Illustrator 22.1.0, SVG Export Plug-In . SVG Version: 6.00 Build 0)  -->
<svg version="1.1" id="圖層_1" xmlns="http://www.w3.org/2000/svg" xmlns:xlink="http://www.w3.org/1999/xlink" x="0px" y="0px"
	 viewBox="0 0 38 38" style="enable-background:new 0 0 38 38;" xml:space="preserve">
<style type="text/css">
	.st0{fill:#32CCBC;}
</style>
<title>Artboard Copy</title>
<desc>Created with Sketch.</desc>
<g id="Artboard-Copy">
	<path id="Combined-Shape" class="st0" d="M19,37C9.1,37,1,28.9,1,19S9.1,1,19,1s18,8.1,18,18S28.9,37,19,37z M17,17H9.3
		c-0.6,0-1,0.4-1,1V20c0,0.6,0.4,1,1,1H17v7.8c0,0.6,0.4,1,1,1H20c0.6,0,1-0.4,1-1V21h7.8c0.6,0,1-0.4,1-1V18c0-0.6-0.4-1-1-1H21
		V9.3c0-0.6-0.4-1-1-1H18c-0.6,0-1,0.4-1,1V17z"/>
</g>
</svg>
