<?xml version="1.0" encoding="utf-8"?>
<!-- Generator: Adobe Illustrator 22.1.0, SVG Export Plug-In . SVG Version: 6.00 Build 0)  -->
<svg version="1.1" id="圖層_1" xmlns="http://www.w3.org/2000/svg" xmlns:xlink="http://www.w3.org/1999/xlink" x="0px" y="0px"
	 viewBox="0 0 16 20" style="enable-background:new 0 0 16 20;" xml:space="preserve">
<style type="text/css">
	.st0{fill:#333333;}
</style>
<title>Button/9 more</title>
<desc>Created with Sketch.</desc>
<g id="Button_x2F_9-more">
	<g id="color_x2F_MainText" transform="translate(0.000000, 8.000000)">
		<g id="Mask">
			<path id="path-1_1_" class="st0" d="M14,4c-1.1,0-2-0.9-2-2s0.9-2,2-2s2,0.9,2,2S15.1,4,14,4z M8,4C6.9,4,6,3.1,6,2s0.9-2,2-2
				s2,0.9,2,2S9.1,4,8,4z M2,4C0.9,4,0,3.1,0,2s0.9-2,2-2s2,0.9,2,2S3.1,4,2,4z"/>
		</g>
	</g>
</g>
</svg>
