<?xml version="1.0" encoding="utf-8"?>
<!-- Generator: Adobe Illustrator 21.1.0, SVG Export Plug-In . SVG Version: 6.00 Build 0)  -->
<svg version="1.1" id="圖層_1" xmlns="http://www.w3.org/2000/svg" xmlns:xlink="http://www.w3.org/1999/xlink" x="0px" y="0px"
	 viewBox="0 0 24 24" style="enable-background:new 0 0 24 24;" xml:space="preserve">
<style type="text/css">
	.st0{fill:#FFFFFF;}
	.st1{fill:#333333;}
</style>
<g>
	<path id="path-1" class="st0" d="M15,7.3V1.5c0.2,0.1,0.3,0.2,0.4,0.3l4.8,5c0.1,0.1,0.2,0.3,0.3,0.4H15z M13.5,7.7
		c0,0.7,0.5,1.2,1.1,1.2H21v13c0,0.7-0.5,1.2-1.1,1.2H4.1C3.5,23,3,22.5,3,21.8V2.2C3,1.5,3.5,1,4.1,1h9.4V7.7z"/>
</g>
<title>⚙️/icon/function/23 上架</title>
<desc>Created with Sketch.</desc>
<g id="Page-1">
	<g id="_x2699__xFE0F__x2F_icon_x2F_function_x2F_23-上架">
		<g id="上架">
			<path id="path-1_1_" class="st1" d="M15,7.3V1.5c0.2,0.1,0.3,0.2,0.4,0.3l4.8,5c0.1,0.1,0.2,0.3,0.3,0.4H15z M13.5,7.7
				c0,0.7,0.5,1.2,1.1,1.2H21v13c0,0.7-0.5,1.2-1.1,1.2H4.1C3.5,23,3,22.5,3,21.8V2.2C3,1.5,3.5,1,4.1,1h9.4V7.7z"/>
		</g>
	</g>
</g>
</svg>
