<?xml version="1.0" encoding="utf-8"?>
<!-- Generator: Adobe Illustrator 21.1.0, SVG Export Plug-In . SVG Version: 6.00 Build 0)  -->
<svg version="1.1" id="圖層_1" xmlns="http://www.w3.org/2000/svg" xmlns:xlink="http://www.w3.org/1999/xlink" x="0px" y="0px"
	 viewBox="0 0 24 24" style="enable-background:new 0 0 24 24;" xml:space="preserve">
<style type="text/css">
	.st0{fill:#FFFFFF;}
	.st1{fill:#333333;}
</style>
<g>
	<path id="path-1" class="st0" d="M19.5,11.1c0.3,0,0.5,0.2,0.5,0.5v8.4c0,1.1-0.8,1.9-1.8,1.9H4.8c-1,0-1.8-0.9-1.8-1.9v-14
		C3,5,3.8,4.1,4.8,4.1h8c0.2,0,0.5,0.2,0.5,0.5v0.2c0,0.3-0.2,0.5-0.5,0.5H5.4c-0.7,0-1.2,0.6-1.2,1.3v12.8c0,0.7,0.5,1.3,1.2,1.3
		h12.2c0.7,0,1.2-0.6,1.2-1.3v-7.8c0-0.3,0.2-0.5,0.5-0.5H19.5z M21.8,2C21.9,2,22,2.1,22,2.3V9c0,0.3-0.2,0.5-0.5,0.5h-0.4
		c-0.2,0-0.5-0.2-0.5-0.5V4.6l-8.9,9.3c0,0.1-0.1,0.1-0.2,0.1c-0.1,0-0.1,0-0.2-0.1l-0.8-0.8c0-0.1-0.1-0.1-0.1-0.2
		c0-0.1,0-0.1,0.1-0.2l8.9-9.4h-4.2c-0.2,0-0.5-0.2-0.5-0.5V2.5c0-0.3,0.2-0.5,0.5-0.5H21.8z"/>
</g>
<title>⚙️/icon/house-type/13 others</title>
<desc>Created with Sketch.</desc>
<g id="Page-1">
	<g id="_x2699__xFE0F__x2F_icon_x2F_house-type_x2F_13-others">
		<g id="Combined-Shape">
			<path id="path-1_1_" class="st1" d="M19.5,11.1c0.3,0,0.5,0.2,0.5,0.5v8.4c0,1.1-0.8,1.9-1.8,1.9H4.8c-1,0-1.8-0.9-1.8-1.9v-14
				C3,5,3.8,4.1,4.8,4.1h8c0.2,0,0.5,0.2,0.5,0.5v0.2c0,0.3-0.2,0.5-0.5,0.5H5.4c-0.7,0-1.2,0.6-1.2,1.3v12.8c0,0.7,0.5,1.3,1.2,1.3
				h12.2c0.7,0,1.2-0.6,1.2-1.3v-7.8c0-0.3,0.2-0.5,0.5-0.5H19.5z M21.8,2C21.9,2,22,2.1,22,2.3V9c0,0.3-0.2,0.5-0.5,0.5h-0.4
				c-0.2,0-0.5-0.2-0.5-0.5V4.6l-8.9,9.3c0,0.1-0.1,0.1-0.2,0.1c-0.1,0-0.1,0-0.2-0.1l-0.8-0.8c0-0.1-0.1-0.1-0.1-0.2
				c0-0.1,0-0.1,0.1-0.2l8.9-9.4h-4.2c-0.2,0-0.5-0.2-0.5-0.5V2.5c0-0.3,0.2-0.5,0.5-0.5H21.8z"/>
		</g>
	</g>
</g>
</svg>
