<?xml version="1.0" encoding="utf-8"?>
<!-- Generator: Adobe Illustrator 21.1.0, SVG Export Plug-In . SVG Version: 6.00 Build 0)  -->
<svg version="1.1" id="圖層_1" xmlns="http://www.w3.org/2000/svg" xmlns:xlink="http://www.w3.org/1999/xlink" x="0px" y="0px"
	 viewBox="0 0 98 44" style="enable-background:new 0 0 98 44;" xml:space="preserve">
<style type="text/css">
	.st0{fill:#333333;}
	.st1{fill:#231815;}
</style>
<g>
	<g>
		<path class="st0" d="M37.9,1.4c1.1,0.9,1.7,2.2,1.7,3.9c0,2.1-1,3.5-3.1,4.2c1.1,0.4,1.9,0.9,2.5,1.6c0.6,0.7,0.9,1.7,0.9,2.8
			c0,1.8-0.6,3.2-1.8,4.4C37,19.4,35.3,20,33.4,20c-1.9,0-3.4-0.5-4.6-1.5c-1.3-1.1-2-2.8-2.2-4.9h2.8c0.1,1.3,0.4,2.3,1.2,3
			c0.7,0.6,1.6,1,2.6,1c1.2,0,2.1-0.4,2.9-1.1c0.6-0.6,1-1.4,1-2.4c0-1.1-0.3-2-1-2.5c-0.6-0.5-1.6-0.8-2.8-0.8H32V8.6h1.3
			c1.1,0,2-0.3,2.6-0.8c0.6-0.5,0.9-1.3,0.9-2.2S36.5,3.8,36,3.3c-0.6-0.5-1.4-0.8-2.5-0.8c-1.1,0-2,0.3-2.6,0.9s-1,1.5-1.1,2.7H27
			c0.2-1.9,0.8-3.4,2-4.5C30.2,0.5,31.6,0,33.5,0C35.3,0,36.8,0.5,37.9,1.4z"/>
		<path class="st0" d="M55.1,5.3h-2.7C52,3.4,50.9,2.5,49,2.5c-1.3,0-2.3,0.6-3.1,2c-0.8,1.2-1.1,2.8-1.1,4.7c0,0.1,0,0.2,0,0.4H45
			c0.5-0.9,1.2-1.5,2-1.9C47.7,7.1,48.5,7,49.5,7c1.8,0,3.3,0.6,4.3,1.8c1.1,1.2,1.6,2.8,1.6,4.7c0,1.9-0.6,3.5-1.8,4.7
			C52.4,19.4,50.8,20,49,20c-2.3,0-4-0.9-5.2-2.6c-1.1-1.6-1.7-3.9-1.7-6.9c0-3.1,0.6-5.7,1.8-7.6c1.2-2,3-2.9,5.1-2.9
			C52.6,0,54.7,1.8,55.1,5.3z M46.2,10.5c-0.7,0.8-1,1.8-1,3c0,1.2,0.3,2.2,1,3c0.7,0.8,1.6,1.1,2.7,1.1c1.1,0,2-0.4,2.7-1.2
			c0.7-0.8,1.1-1.8,1.1-3c0-1.2-0.3-2.2-1-2.9C51,9.7,50.1,9.3,49,9.3C47.8,9.3,46.9,9.7,46.2,10.5z"/>
		<path class="st0" d="M69.4,2.9C70.5,4.7,71,7,71,10c0,3-0.5,5.4-1.6,7.1c-1.2,1.9-2.9,2.9-5,2.9c-2.2,0-3.9-1-5-2.9
			c-1.1-1.8-1.6-4.2-1.6-7.1c0-3,0.5-5.4,1.6-7.1C60.5,1,62.1,0,64.3,0C66.5,0,68.2,1,69.4,2.9z M61.1,5.1C60.6,6.3,60.4,8,60.4,10
			c0,2,0.2,3.7,0.7,4.9c0.6,1.7,1.7,2.6,3.2,2.6c1.5,0,2.6-0.9,3.2-2.6c0.4-1.2,0.7-2.9,0.7-4.9c0-2.1-0.2-3.7-0.7-4.9
			c-0.6-1.8-1.7-2.6-3.2-2.6C62.8,2.5,61.7,3.4,61.1,5.1z"/>
	</g>
	<path class="st1" d="M37,39c0,0-0.1,0-0.1,0C18.5,37.5,0,31.7,0,22.4C0,16,8.8,10.6,24.1,7.6c0.8-0.2,1.6,0.4,1.8,1.2
		c0.2,0.8-0.4,1.6-1.2,1.8C11.5,13.1,3,17.8,3,22.4c0,7,17.6,12.2,34.2,13.6c0.8,0.1,1.4,0.8,1.4,1.6C38.5,38.4,37.8,39,37,39z"/>
	<path class="st1" d="M52.3,39.5c-0.8,0-1.5-0.6-1.5-1.5c0-0.8,0.6-1.5,1.5-1.5C72.9,36,95,30.3,95,22.4c0-4.5-8.2-9.1-21-11.8
		c-0.8-0.2-1.3-1-1.2-1.8c0.2-0.8,1-1.3,1.8-1.2C89.5,10.8,98,16.2,98,22.4C98,30.4,82.3,38.8,52.3,39.5
		C52.3,39.5,52.3,39.5,52.3,39.5z"/>
	<g>
		<polygon class="st1" points="46.8,37.5 37.8,31.6 37.8,43.5 		"/>
		<path class="st1" d="M37.8,44c-0.1,0-0.2,0-0.2-0.1c-0.2-0.1-0.3-0.3-0.3-0.4V31.6c0-0.2,0.1-0.4,0.3-0.4c0.2-0.1,0.4-0.1,0.5,0
			l9,5.9c0.1,0.1,0.2,0.2,0.2,0.4s-0.1,0.3-0.2,0.4l-9,5.9C37.9,43.9,37.8,44,37.8,44z M38.3,32.5v10l7.6-5L38.3,32.5z"/>
	</g>
</g>
</svg>
