<?xml version="1.0" encoding="utf-8"?>
<!-- Generator: Adobe Illustrator 21.1.0, SVG Export Plug-In . SVG Version: 6.00 Build 0)  -->
<svg version="1.1" id="圖層_1" xmlns="http://www.w3.org/2000/svg" xmlns:xlink="http://www.w3.org/1999/xlink" x="0px" y="0px"
	 viewBox="0 0 24 24" style="enable-background:new 0 0 24 24;" xml:space="preserve">
<style type="text/css">
	.st0{fill:#FFFFFF;}
	.st1{fill:#333333;}
</style>
<g>
	<path id="path-1" class="st0" d="M12.6,22.6h7c0.2,0,0.5-0.1,0.6-0.3c0.2-0.2,0.3-0.4,0.3-0.6v-3c0-0.8-0.4-1.5-1.2-2.1
		c-0.8-0.6-2-1.1-3.3-1.4c-0.7,2.5-1.4,3.7-2.4,5.5c-0.2,0.3-0.4,0.7-0.6,1.1l0,0v0l0,0l0,0L12.6,22.6z M8,15.2
		c-1.3,0.3-2.5,0.8-3.3,1.4c-0.7,0.6-1.2,1.2-1.2,2v3c0,0.2,0.1,0.5,0.3,0.6l0,0c0.2,0.2,0.4,0.3,0.6,0.3h7L11,21.9l0,0l0,0
		c-0.2-0.4-0.5-0.8-0.7-1.2l0,0C9.3,18.9,8.7,17.8,8,15.2L8,15.2z M15.5,15L15,14.7l-2.7,1.5l0.5,0.9l0,0l0.2,0.3L15.5,15z M9,14.7
		L8.5,15l2.6,2.5l0.2-0.3l0,0l0,0l0,0l0.5-0.9L9,14.7z M11,21.1l0.1-0.7c0.1-0.8,0.2-1.5,0.3-2.4v0c0,0,0,0,0,0c0,0,0,0,0-0.1
		c0,0,0,0,0,0l0,0l-0.1,0.2c0,0,0,0,0,0c-0.1,0.1-0.2,0.1-0.3,0l-2.4-2.3c0.6,2.1,1.3,3.2,2.1,4.8l0,0C10.8,20.7,10.9,20.9,11,21.1
		L11,21.1z M12.7,17.7L12.7,17.7L12.7,17.7C12.6,17.8,12.6,17.8,12.7,17.7c0,0.1,0,0.1-0.1,0.1c0,0,0,0,0,0c0.1,0.9,0.2,1.6,0.3,2.4
		L13,21c0.1-0.2,0.2-0.4,0.3-0.5c0.9-1.6,1.5-2.7,2.1-4.7L13.1,18c-0.1,0.1-0.2,0.1-0.3,0c0,0,0,0,0,0L12.7,17.7z M11.7,17.2
		l0.1,0.3c0,0.1,0.1,0.1,0.1,0.2c0,0.1,0,0.1,0,0.2v0c-0.1,0.8-0.2,1.6-0.3,2.4c-0.1,0.4-0.1,0.9-0.2,1.3l0.5,0.8h0.2l0.5-0.9
		c-0.1-0.4-0.1-0.8-0.2-1.3c-0.1-0.8-0.2-1.6-0.3-2.4c0-0.1,0-0.1,0-0.2c0-0.1,0-0.1,0.1-0.2l0.1-0.3L12,16.6L11.7,17.2z M16.4,5.7
		c0-2.4-0.3-4.2-4.4-4.2c-4.2,0-4.5,1.8-4.4,4.2c0-0.2,0-0.4,0.1-0.6c0-0.2,0.1-0.5,0.3-0.7c0.3-0.4,0.6-0.5,1-0.5
		c0.4,0,0.8,0.1,1.2,0.2l0,0c0.6,0.1,1.2,0.3,1.8,0.3c0.7,0,1.3-0.2,1.8-0.3l0,0c0.4-0.1,0.8-0.2,1.2-0.2c0.4,0,0.8,0.1,1,0.5l0,0
		c0.2,0.2,0.3,0.4,0.3,0.7C16.4,5.2,16.4,5.5,16.4,5.7L16.4,5.7z M9.4,12.5L9.4,12.5c0,0.6-0.1,1.4-0.1,1.8l2.8,1.6l2.7-1.6
		c-0.1-0.4-0.1-1.1-0.2-1.7l0-0.1c-0.3,0.2-0.5,0.4-0.8,0.6c-0.6,0.3-1.2,0.5-1.8,0.5s-1.2-0.2-1.8-0.5C9.9,13,9.7,12.8,9.4,12.5
		L9.4,12.5z M9.3,11.9L9.3,11.9L9.3,11.9L9.3,11.9c0.3,0.4,0.7,0.7,1.1,0.9c0.5,0.3,1,0.5,1.6,0.5s1.1-0.2,1.6-0.5
		c0.5-0.3,1-0.8,1.5-1.3c0.4-0.5,0.8-1.2,1-1.8c0.2-0.5,0.3-1,0.3-1.5L16.1,7C16.1,6.8,16,6.6,16,6.4c0-0.2,0-0.4,0-0.6
		c0-0.2,0-0.5,0-0.7c0-0.2-0.1-0.4-0.2-0.5l0,0c-0.2-0.2-0.4-0.3-0.7-0.3c-0.3,0-0.7,0.1-1.1,0.2h0c-0.6,0.2-1.2,0.3-1.9,0.3
		c-0.7,0-1.3-0.2-1.9-0.3c0,0,0,0,0,0C9.6,4.4,9.3,4.3,8.9,4.3c-0.3,0-0.5,0.1-0.7,0.3C8.1,4.8,8.1,4.9,8,5.1c0,0.2,0,0.4,0,0.7
		C8,6,8,6.2,8,6.4c0,0.2,0,0.4-0.1,0.6L7.6,8.1c0,0.5,0.2,1,0.3,1.5c0.2,0.7,0.6,1.3,1,1.8C9.1,11.6,9.2,11.7,9.3,11.9L9.3,11.9z
		 M15,12.1c0,0.1,0,0.3,0,0.5c0,0.6,0.1,1.4,0.2,1.7l0.8,0.5c1.5,0.3,2.8,0.8,3.7,1.5c0.8,0.6,1.4,1.4,1.4,2.4l0,3
		c0,0.4-0.1,0.7-0.4,0.9h0C20.4,22.8,20,23,19.7,23h-7.4h0h-0.5H4.3c-0.4,0-0.7-0.2-0.9-0.4h0v0C3.2,22.4,3,22,3,21.7v-3
		c0-1,0.5-1.8,1.4-2.4c0.9-0.7,2.2-1.2,3.7-1.5l0.8-0.5c0.1-0.3,0.1-1.1,0.1-1.7c0-0.2,0-0.3,0-0.5c-0.1-0.1-0.2-0.3-0.3-0.4
		c-0.5-0.6-0.8-1.3-1.1-2C7.3,9.1,7.1,8.3,7.1,7.6v0c0,0,0,0,0,0c0-0.1,0-0.2,0-0.3c0-0.4,0-0.7,0-1C7.1,3.3,7,1,12,1
		s4.9,2.3,4.9,5.3c0,0.3,0,0.6,0,1c0,0,0,0.1,0,0.1l0,0.1c0,0,0,0,0,0l0,0v0c0,0.2,0,0.3,0,0.5v0v0c0,0.5-0.2,1.1-0.4,1.6
		c-0.3,0.7-0.6,1.4-1.1,2C15.3,11.9,15.1,12,15,12.1L15,12.1z"/>
</g>
<title>⚙️/icon/sidebar/03 personal-data</title>
<desc>Created with Sketch.</desc>
<path class="st1" d="M19.7,16.1c-0.9-0.7-2.2-1.2-3.7-1.5l-0.7-0.4c-0.1-0.3-0.1-1.1-0.2-1.6l0-0.2c0-0.1,0-0.2,0-0.2
	c0.1-0.1,0.2-0.3,0.3-0.4c0.5-0.6,0.9-1.3,1.1-2c0.2-0.5,0.3-1.1,0.4-1.7c0-0.2,0-0.3,0-0.5c0,0,0,0,0-0.1l0-0.2c0-0.4,0-0.7,0-1
	c0-1.8,0.1-3.3-0.9-4.3C15.3,1.2,14,0.9,12,0.9c-2,0-3.3,0.4-4.1,1.2c-1,1-1,2.6-0.9,4.3c0,0.3,0,0.6,0,1c0,0.1,0,0.1,0,0.2
	c0,0,0,0,0,0.1c0,0.7,0.1,1.4,0.4,2.2c0.3,0.7,0.7,1.4,1.1,2c0.1,0.1,0.2,0.2,0.3,0.4l0,0.5c0,0.5-0.1,1.1-0.1,1.5L8,14.6
	c-1.6,0.3-2.8,0.8-3.7,1.5c-0.9,0.7-1.4,1.6-1.4,2.5v3c0,0.4,0.1,0.7,0.4,1l0,0.1h0.1c0.3,0.3,0.6,0.4,1,0.4h15.3
	c0.4,0,0.7-0.1,1-0.4l0,0c0.3-0.3,0.4-0.7,0.4-1.1l0-3C21.2,17.7,20.7,16.8,19.7,16.1z M7.6,5.7L7.6,5.7C7.6,5.7,7.6,5.7,7.6,5.7
	C7.6,5.7,7.6,5.7,7.6,5.7z M13.2,21.9L13.2,21.9L13.2,21.9c0.2-0.4,0.4-0.8,0.6-1.1l0-0.1c0.9-1.7,1.6-2.9,2.3-5.3
	c1.3,0.3,2.4,0.8,3.1,1.3c0.7,0.6,1.1,1.2,1.1,1.9v3c0,0.2-0.1,0.4-0.2,0.5c-0.1,0.1-0.3,0.2-0.5,0.2h-6.8L13.2,21.9z M11.1,22.4
	H4.3c-0.2,0-0.4-0.1-0.5-0.2c-0.1-0.1-0.2-0.3-0.2-0.5v-3c0-0.7,0.4-1.4,1.1-1.9c0.7-0.5,1.8-1,3.1-1.3c0.7,2.5,1.4,3.7,2.3,5.4
	l0.1,0.2c0.2,0.3,0.4,0.6,0.5,1L11.1,22.4z M11.5,16.3L11,17.2L8.7,15L9,14.8L11.5,16.3z M12,1.6c1.7,0,2.9,0.3,3.5,1
	c0.4,0.4,0.6,1,0.7,1.7c0,0,0,0,0,0c-0.3-0.3-0.6-0.5-1.1-0.5c0,0,0,0,0,0c-0.4,0-0.8,0.1-1.3,0.2c-0.5,0.1-1.1,0.3-1.8,0.3
	c-0.6,0-1.3-0.2-1.8-0.3C9.8,3.8,9.3,3.7,9,3.7c0,0,0,0,0,0c-0.5,0-0.9,0.2-1.1,0.5c0,0,0,0,0,0C7.8,3.6,8,3,8.5,2.6
	C9.1,1.9,10.3,1.6,12,1.6z M8,7c0.1-0.2,0.1-0.4,0.1-0.7c0-0.2,0-0.4,0-0.6c0-0.2,0-0.4,0-0.6c0-0.2,0.1-0.3,0.2-0.4
	c0.1-0.2,0.3-0.2,0.6-0.2c0.3,0,0.7,0.1,1.1,0.2C10.6,4.8,11.3,5,12,5c0.7,0,1.4-0.2,1.9-0.3l0.1,0c0.4-0.1,0.7-0.2,1-0.2
	c0.3,0,0.4,0.1,0.6,0.2c0.1,0.1,0.2,0.3,0.2,0.4c0,0.2,0,0.4,0,0.6l0,0.1c0,0.2,0,0.3,0,0.5c0,0.2,0.1,0.4,0.1,0.7l0.3,1.1
	c0,0.5-0.2,0.9-0.3,1.4c-0.2,0.7-0.6,1.3-1,1.8c-0.4,0.5-0.9,1-1.4,1.3c-0.5,0.3-1,0.4-1.5,0.4c-0.5,0-1-0.1-1.5-0.4
	c-0.4-0.2-0.7-0.5-1-0.8v-0.1H9.4c-0.1-0.1-0.2-0.2-0.3-0.4c-0.4-0.5-0.8-1.2-1-1.8C7.9,9.1,7.8,8.6,7.8,8.1L8,7z M9.5,12.8
	c0.2,0.2,0.4,0.3,0.6,0.4c1.2,0.7,2.5,0.7,3.7,0c0.2-0.1,0.4-0.3,0.6-0.4c0,0.5,0.1,1,0.1,1.4L12,15.7l-2.6-1.5
	C9.5,13.9,9.5,13.3,9.5,12.8z M13,17.2l-0.5-0.9l2.5-1.4l0.3,0.2L13,17.2z M11,20.6c0-0.1-0.1-0.1-0.1-0.2l0,0
	c-0.8-1.4-1.4-2.4-2-4.2l2,1.9c0.1,0.1,0.3,0.1,0.4,0c-0.1,0.8-0.2,1.5-0.3,2.2L11,20.6z M11.8,17.3l0.2-0.3l0.2,0.3l-0.1,0.3
	c0,0.1-0.1,0.1-0.1,0.2c0-0.1,0-0.1-0.1-0.2L11.8,17.3z M13,18.2C13,18.2,13,18.2,13,18.2c0.1,0,0.2,0,0.3-0.1l1.9-1.8
	C14.5,18,14,19,13.2,20.4l-0.1,0.1l0-0.2c-0.1-0.7-0.2-1.4-0.3-2.2C12.8,18.2,12.9,18.2,13,18.2z M11.6,21.3c0-0.3,0.1-0.6,0.1-0.9
	c0.1-0.7,0.2-1.5,0.3-2.2c0.1,0.6,0.2,1.2,0.2,1.8l0.2,1.7L12,22.4H12l-0.4-0.7L11.6,21.3z M16.9,7.6C16.9,7.6,16.9,7.6,16.9,7.6
	L16.9,7.6L16.9,7.6z"/>
</svg>
