<?xml version="1.0" encoding="utf-8"?>
<!-- Generator: Adobe Illustrator 21.1.0, SVG Export Plug-In . SVG Version: 6.00 Build 0)  -->
<svg version="1.1" id="圖層_1" xmlns="http://www.w3.org/2000/svg" xmlns:xlink="http://www.w3.org/1999/xlink" x="0px" y="0px"
	 viewBox="0 0 24 24" style="enable-background:new 0 0 24 24;" xml:space="preserve">
<style type="text/css">
	.st0{fill:#FFFFFF;}
	.st1{fill:#333333;}
</style>
<g>
	<path id="path-1" class="st0" d="M10,10H2l0,0c-0.6,0-1,0.4-1,1v2c0,0.6,0.4,1,1,1h8v8c0,0.6,0.4,1,1,1h2c0.6,0,1-0.4,1-1v-8h8
		c0.6,0,1-0.4,1-1v-2c0-0.6-0.4-1-1-1h-8V2c0-0.6-0.4-1-1-1h-2c-0.6,0-1,0.4-1,1l0,0V10z"/>
</g>
<title>⚙️/icon/function/34 plus</title>
<desc>Created with Sketch.</desc>
<g id="Page-1">
	<g id="_x2699__xFE0F__x2F_icon_x2F_function_x2F_34-plus">
		<g id="Combined-Shape">
			<path id="path-1_1_" class="st1" d="M10,10H2l0,0c-0.6,0-1,0.4-1,1v2c0,0.6,0.4,1,1,1h8v8c0,0.6,0.4,1,1,1h2c0.6,0,1-0.4,1-1v-8
				h8c0.6,0,1-0.4,1-1v-2c0-0.6-0.4-1-1-1h-8V2c0-0.6-0.4-1-1-1h-2c-0.6,0-1,0.4-1,1l0,0V10z"/>
		</g>
	</g>
</g>
</svg>
