<?xml version="1.0" encoding="utf-8"?>
<!-- Generator: Adobe Illustrator 21.1.0, SVG Export Plug-In . SVG Version: 6.00 Build 0)  -->
<svg version="1.1" id="圖層_1" xmlns="http://www.w3.org/2000/svg" xmlns:xlink="http://www.w3.org/1999/xlink" x="0px" y="0px"
	 viewBox="0 0 24 24" style="enable-background:new 0 0 24 24;" xml:space="preserve">
<style type="text/css">
	.st0{fill:#FFFFFF;}
	.st1{fill:#333333;}
</style>
<g>
	<path id="path-1" class="st0" d="M19,16.9c-0.2,0-0.4-0.2-0.4-0.4V6.2c0-0.3-0.1-0.5-0.3-0.7c-0.2-0.2-0.4-0.3-0.7-0.3h-1.4
		c-0.3,0-0.5,0.1-0.7,0.3c-0.2,0.2-0.3,0.4-0.3,0.7v10.3c0,0.2-0.2,0.4-0.4,0.4H13l3.9,5.4l3.9-5.4H19z M10.2,8.4v9.9
		c0,0.5-0.2,0.9-0.6,1.3c-0.4,0.3-0.8,0.5-1.3,0.5H7c-0.5,0-1-0.2-1.3-0.5c-0.4-0.3-0.6-0.8-0.6-1.3V8.4H2.9c-0.1,0-0.2,0-0.2-0.1
		C2.5,8.2,2.4,7.9,2.6,7.7l4.7-6.5c0-0.1,0.1-0.1,0.1-0.1C7.6,0.9,7.9,1,8,1.2l4.7,6.5c0.1,0.1,0.1,0.2,0.1,0.3
		c0,0.2-0.2,0.4-0.4,0.4H10.2z M3.8,7.6h1.8C5.8,7.6,6,7.7,6,8v10.3c0,0.3,0.1,0.5,0.3,0.8l0-0.1c0.2,0.2,0.4,0.3,0.7,0.3h1.4
		c0.3,0,0.5-0.1,0.7-0.3c0.2-0.2,0.3-0.4,0.3-0.7V8c0-0.2,0.2-0.4,0.4-0.4h1.8L7.7,2.1L3.8,7.6z M14.3,6.2c0-0.5,0.2-0.9,0.6-1.3
		c0.4-0.3,0.8-0.5,1.3-0.5h1.4c0.5,0,1,0.2,1.4,0.6l0-0.1c0.4,0.3,0.6,0.8,0.6,1.3v9.9h2.1c0.2,0,0.4,0.2,0.4,0.4
		c0,0.1,0,0.2-0.1,0.2l-4.7,6.5c-0.1,0.2-0.4,0.2-0.6,0.1c0,0-0.1-0.1-0.1-0.1l-4.7-6.6c-0.1-0.2-0.1-0.4,0.1-0.6
		c0.1,0,0.2-0.1,0.2-0.1h2.1V6.2z"/>
</g>
<title>⚙️/icon/sidebar/12 點數支出</title>
<desc>Created with Sketch.</desc>
<g id="Page-1">
	<g id="_x2699__xFE0F__x2F_icon_x2F_sidebar_x2F_12-點數支出">
		<g id="Fill-1">
			<path id="path-1_1_" class="st1" d="M19,16.9c-0.2,0-0.4-0.2-0.4-0.4V6.2c0-0.3-0.1-0.5-0.3-0.7c-0.2-0.2-0.4-0.3-0.7-0.3h-1.4
				c-0.3,0-0.5,0.1-0.7,0.3c-0.2,0.2-0.3,0.4-0.3,0.7v10.3c0,0.2-0.2,0.4-0.4,0.4H13l3.9,5.4l3.9-5.4H19z M10.2,8.4v9.9
				c0,0.5-0.2,0.9-0.6,1.3c-0.4,0.3-0.8,0.5-1.3,0.5H7c-0.5,0-1-0.2-1.3-0.5c-0.4-0.3-0.6-0.8-0.6-1.3V8.4H2.9c-0.1,0-0.2,0-0.2-0.1
				C2.5,8.2,2.4,7.9,2.6,7.7l4.7-6.5c0-0.1,0.1-0.1,0.1-0.1C7.6,0.9,7.9,1,8,1.2l4.7,6.5c0.1,0.1,0.1,0.2,0.1,0.3
				c0,0.2-0.2,0.4-0.4,0.4H10.2z M3.8,7.6h1.8C5.8,7.6,6,7.7,6,8v10.3c0,0.3,0.1,0.5,0.3,0.8l0-0.1c0.2,0.2,0.4,0.3,0.7,0.3h1.4
				c0.3,0,0.5-0.1,0.7-0.3c0.2-0.2,0.3-0.4,0.3-0.7V8c0-0.2,0.2-0.4,0.4-0.4h1.8L7.7,2.1L3.8,7.6z M14.3,6.2c0-0.5,0.2-0.9,0.6-1.3
				c0.4-0.3,0.8-0.5,1.3-0.5h1.4c0.5,0,1,0.2,1.4,0.6l0-0.1c0.4,0.3,0.6,0.8,0.6,1.3v9.9h2.1c0.2,0,0.4,0.2,0.4,0.4
				c0,0.1,0,0.2-0.1,0.2l-4.7,6.5c-0.1,0.2-0.4,0.2-0.6,0.1c0,0-0.1-0.1-0.1-0.1l-4.7-6.6c-0.1-0.2-0.1-0.4,0.1-0.6
				c0.1,0,0.2-0.1,0.2-0.1h2.1V6.2z"/>
		</g>
	</g>
</g>
</svg>
