<?xml version="1.0" encoding="utf-8"?>
<!-- Generator: Adobe Illustrator 21.1.0, SVG Export Plug-In . SVG Version: 6.00 Build 0)  -->
<svg version="1.1" id="圖層_1" xmlns="http://www.w3.org/2000/svg" xmlns:xlink="http://www.w3.org/1999/xlink" x="0px" y="0px"
	 viewBox="0 0 24 24" style="enable-background:new 0 0 24 24;" xml:space="preserve">
<style type="text/css">
	.st0{fill:#FFFFFF;}
	.st1{fill:#333333;}
</style>
<g>
	<path id="path-1" class="st0" d="M12,24C5.4,24,0,18.6,0,12S5.4,0,12,0s12,5.4,12,12S18.6,24,12,24z M7.7,6v12.9h2v-5h3.4
		c3.1,0,4.7-1.3,4.7-3.9c0-2.6-1.6-3.9-4.7-3.9H7.7z M9.7,7.7h3.3c1,0,1.7,0.2,2.2,0.5c0.5,0.3,0.7,0.9,0.7,1.7s-0.2,1.4-0.7,1.7
		c-0.5,0.4-1.2,0.5-2.2,0.5H9.7V7.7z"/>
</g>
<title>⚙️/icon/function/17 point</title>
<desc>Created with Sketch.</desc>
<g id="Page-1">
	<g id="_x2699__xFE0F__x2F_icon_x2F_function_x2F_17-point">
		<g id="Combined-Shape">
			<path id="path-1_1_" class="st1" d="M12,24C5.4,24,0,18.6,0,12S5.4,0,12,0s12,5.4,12,12S18.6,24,12,24z M7.7,6v12.9h2v-5h3.4
				c3.1,0,4.7-1.3,4.7-3.9c0-2.6-1.6-3.9-4.7-3.9H7.7z M9.7,7.7h3.3c1,0,1.7,0.2,2.2,0.5c0.5,0.3,0.7,0.9,0.7,1.7s-0.2,1.4-0.7,1.7
				c-0.5,0.4-1.2,0.5-2.2,0.5H9.7V7.7z"/>
		</g>
	</g>
</g>
</svg>
