<?xml version="1.0" encoding="utf-8"?>
<!-- Generator: Adobe Illustrator 21.1.0, SVG Export Plug-In . SVG Version: 6.00 Build 0)  -->
<svg version="1.1" id="圖層_1" xmlns="http://www.w3.org/2000/svg" xmlns:xlink="http://www.w3.org/1999/xlink" x="0px" y="0px"
	 viewBox="0 0 24 24" style="enable-background:new 0 0 24 24;" xml:space="preserve">
<g>
	<path id="SVGID_1_" d="M16.5,12c0-0.1-0.1-0.3-0.2-0.4L7.9,3.2C7.8,3.1,7.6,3,7.5,3S7.2,3.1,7.1,3.2L6.2,4.1C6.1,4.2,6,4.4,6,4.5
			c0,0.1,0.1,0.3,0.2,0.4l7.1,7.1l-7.1,7.1C6.1,19.2,6,19.4,6,19.5c0,0.2,0.1,0.3,0.2,0.4l0.9,0.9C7.2,20.9,7.4,21,7.5,21
			s0.3-0.1,0.4-0.2l8.4-8.4C16.4,12.3,16.5,12.1,16.5,12z"/>
</g>
</svg>
