<svg id="圖層_1" data-name="圖層 1" xmlns="http://www.w3.org/2000/svg" viewBox="0 0 24 24"><title>preview</title><g id="_icon_function_40-preview-copy-2" data-name="⚙️/icon/function/40-preview-copy-2"><path id="preview" d="M17.32,22.42H1a1,1,0,0,1-1-1V1A1,1,0,0,1,1,0H8.83V8.49a1,1,0,0,0,1,1h8.49v3.05a4.78,4.78,0,0,0-2,0,5,5,0,0,0-3.78,3.53v.06a1,1,0,0,1,0,.14.29.29,0,0,1,0,.09s0,.08,0,.12a.43.43,0,0,0,0,.11s0,.08,0,.12,0,.08,0,.12a.41.41,0,0,1,0,.11c0,.05,0,.1,0,.15v.08a1.93,1.93,0,0,0,0,.24h0a1.93,1.93,0,0,0,0,.24v.08c0,.05,0,.1,0,.15s0,.06,0,.09,0,.09,0,.13,0,.07,0,.1a.5.5,0,0,1,0,.12l.06.25v.05a.83.83,0,0,0,0,.15v.05a1,1,0,0,1,.05.16v0a4.87,4.87,0,0,0,.7,1.36,5,5,0,0,0,4,2Zm6.27-.16a1,1,0,1,1-1.44,1.44l-2.1-2.1a5.06,5.06,0,0,0,1.44-1.44ZM10.87,7.47V.6l6.87,6.87H10.87Zm9.39,10a2.94,2.94,0,1,1-2.94-2.94A2.95,2.95,0,0,1,20.26,17.43Z"/></g></svg>