<?xml version="1.0" encoding="utf-8"?>
<!-- Generator: Adobe Illustrator 16.0.4, SVG Export Plug-In . SVG Version: 6.00 Build 0)  -->
<!DOCTYPE svg PUBLIC "-//W3C//DTD SVG 1.1//EN" "http://www.w3.org/Graphics/SVG/1.1/DTD/svg11.dtd">
<svg version="1.1" id="圖層_1" xmlns="http://www.w3.org/2000/svg" xmlns:xlink="http://www.w3.org/1999/xlink" x="0px" y="0px"
	 width="537px" height="537px" viewBox="-243.5 -197.5 537 537" enable-background="new -243.5 -197.5 537 537"
	 xml:space="preserve">
<g id="Page-1">
	<g id="Symbol-_x2F_-icon-_x2F_-New-_x2F_-23.question" transform="translate(-2.000000, -2.000000)">
		<path id="Shape" fill="#202122" d="M23.495-189.346c-144.89,1.939-260.766,120.979-258.838,265.872
			c1.939,144.833,120.969,260.75,265.857,258.82c144.861-1.954,260.759-120.991,258.83-265.876
			C287.401-75.377,168.37-191.28,23.495-189.346z M22.719,232.702l-1.447-0.021c-22.311-0.666-38.044-17.098-37.412-39.081
			c0.622-21.609,16.736-37.29,38.313-37.29l1.296,0.021c22.937,0.677,38.488,16.953,37.845,39.563
			C60.675,217.563,44.81,232.702,22.719,232.702z M116.572,46.426c-5.247,7.456-16.785,16.713-31.323,28.041L69.243,85.518
			c-8.796,6.836-14.097,13.263-16.088,19.592c-1.568,4.976-2.335,6.295-2.477,16.421l-0.021,2.575h-61.135l0.179-5.171
			c0.747-21.27,1.271-33.774,10.082-44.109c13.826-16.231,44.328-35.87,45.615-36.703c4.371-3.292,8.061-7.038,10.802-11.043
			c6.415-8.845,9.255-15.81,9.255-22.655c0-9.496-2.812-18.28-8.389-26.1c-5.355-7.544-15.529-11.367-30.245-11.367
			c-14.597,0-24.589,4.63-30.567,14.133c-6.149,9.769-9.258,20.031-9.258,30.516v2.605h-63.032l0.118-2.721
			c1.625-38.607,15.405-66.408,40.939-82.629c16.046-10.328,36.006-15.564,59.301-15.564c30.489,0,56.236,7.411,76.497,22.023
			c20.534,14.807,30.951,36.981,30.951,65.909C131.771,17.412,126.655,32.613,116.572,46.426z"/>
	</g>
</g>
</svg>
