<?xml version="1.0" encoding="utf-8"?>
<!-- Generator: Adobe Illustrator 21.1.0, SVG Export Plug-In . SVG Version: 6.00 Build 0)  -->
<svg version="1.1" id="圖層_1" xmlns="http://www.w3.org/2000/svg" xmlns:xlink="http://www.w3.org/1999/xlink" x="0px" y="0px"
	 viewBox="0 0 24 24" style="enable-background:new 0 0 24 24;" xml:space="preserve">
<style type="text/css">
	.st0{fill:#FFFFFF;}
	.st1{fill:#333333;}
</style>
<g>
	<path id="path-1" class="st0" d="M12,4c3.7,0,6.9,2.5,7.7,6c-0.1,0-0.2,0-0.2,0c-0.3,0-0.5,0.1-0.7,0.2C18,7.2,15.2,5,12,5
		c-3.9,0-7,3.1-7,6.9c0,0.1,0,0.2,0,0.3l1.1-1.1c0.2-0.2,0.5-0.2,0.7,0c0.2,0.2,0.2,0.5,0,0.7l-2,2c-0.1,0.1-0.2,0.1-0.4,0.1
		c-0.1,0-0.3,0-0.4-0.1l-2-2c-0.2-0.2-0.2-0.5,0-0.7c0.2-0.2,0.5-0.2,0.7,0L4,12.2c0-0.1,0-0.2,0-0.3C4,7.5,7.6,4,12,4z M21.9,13.1
		c0.2,0.2,0.2,0.5,0,0.7c-0.2,0.2-0.5,0.2-0.7,0L20,12.6c0,0.1,0,0.2,0,0.3c0,4.4-3.6,7.9-8,7.9c-3.7,0-6.9-2.5-7.7-6
		c0.1,0,0.2,0,0.2,0c0.3,0,0.5-0.1,0.7-0.2c0.8,3,3.5,5.2,6.8,5.2c3.9,0,7-3.1,7-6.9c0-0.1,0-0.2,0-0.3l-1.1,1.1
		c-0.2,0.2-0.5,0.2-0.7,0c-0.2-0.2-0.2-0.5,0-0.7l2-2c0.1-0.1,0.2-0.1,0.4-0.1c0.1,0,0.3,0,0.4,0.1L21.9,13.1z"/>
</g>
<title>⚙️/icon/function/03 renew</title>
<desc>Created with Sketch.</desc>
<g id="Page-1">
	<g id="_x2699__xFE0F__x2F_icon_x2F_function_x2F_03-renew">
		<g id="Combined-Shape">
			<path id="path-1_1_" class="st1" d="M12,4c3.7,0,6.9,2.5,7.7,6c-0.1,0-0.2,0-0.2,0c-0.3,0-0.5,0.1-0.7,0.2C18,7.2,15.2,5,12,5
				c-3.9,0-7,3.1-7,6.9c0,0.1,0,0.2,0,0.3l1.1-1.1c0.2-0.2,0.5-0.2,0.7,0c0.2,0.2,0.2,0.5,0,0.7l-2,2c-0.1,0.1-0.2,0.1-0.4,0.1
				c-0.1,0-0.3,0-0.4-0.1l-2-2c-0.2-0.2-0.2-0.5,0-0.7c0.2-0.2,0.5-0.2,0.7,0L4,12.2c0-0.1,0-0.2,0-0.3C4,7.5,7.6,4,12,4z
				 M21.9,13.1c0.2,0.2,0.2,0.5,0,0.7c-0.2,0.2-0.5,0.2-0.7,0L20,12.6c0,0.1,0,0.2,0,0.3c0,4.4-3.6,7.9-8,7.9c-3.7,0-6.9-2.5-7.7-6
				c0.1,0,0.2,0,0.2,0c0.3,0,0.5-0.1,0.7-0.2c0.8,3,3.5,5.2,6.8,5.2c3.9,0,7-3.1,7-6.9c0-0.1,0-0.2,0-0.3l-1.1,1.1
				c-0.2,0.2-0.5,0.2-0.7,0c-0.2-0.2-0.2-0.5,0-0.7l2-2c0.1-0.1,0.2-0.1,0.4-0.1c0.1,0,0.3,0,0.4,0.1L21.9,13.1z"/>
		</g>
	</g>
</g>
</svg>
