<?xml version="1.0" encoding="utf-8"?>
<!-- Generator: Adobe Illustrator 21.1.0, SVG Export Plug-In . SVG Version: 6.00 Build 0)  -->
<svg version="1.1" id="圖層_1" xmlns="http://www.w3.org/2000/svg" xmlns:xlink="http://www.w3.org/1999/xlink" x="0px" y="0px"
	 viewBox="0 0 24 24" style="enable-background:new 0 0 24 24;" xml:space="preserve">
<style type="text/css">
	.st0{fill:#FFFFFF;}
	.st1{fill:#333333;}
</style>
<g>
	<path id="path-1" class="st0" d="M21.5,2.5c-0.3,0-0.5,0.2-0.5,0.5V7c-1.8-3.1-5.2-5-8.8-5C6.6,2,2,6.5,2,12s4.6,10,10.2,10
		c3.8,0,7.2-2,9-5.3c0.1-0.2,0-0.5-0.2-0.6c-0.2-0.1-0.5,0-0.6,0.2c-1.6,3-4.8,4.8-8.2,4.8c-5.1,0-9.3-4.1-9.3-9.1s4.2-9.1,9.3-9.1
		c3.5,0,6.7,1.9,8.3,5H16c-0.3,0-0.5,0.2-0.5,0.5s0.2,0.5,0.5,0.5h5.6c0.3,0,0.5-0.2,0.5-0.5V2.9C22,2.7,21.8,2.5,21.5,2.5"/>
</g>
<title>⚙️/icon/function/10 rotate</title>
<desc>Created with Sketch.</desc>
<g id="Page-1_1_">
	<g id="_x2699__xFE0F__x2F_icon_x2F_function_x2F_10-rotate">
		<g id="Page-1">
			<path id="path-1_1_" class="st1" d="M21.5,2.5c-0.3,0-0.5,0.2-0.5,0.5V7c-1.8-3.1-5.2-5-8.8-5C6.6,2,2,6.5,2,12s4.6,10,10.2,10
				c3.8,0,7.2-2,9-5.3c0.1-0.2,0-0.5-0.2-0.6c-0.2-0.1-0.5,0-0.6,0.2c-1.6,3-4.8,4.8-8.2,4.8c-5.1,0-9.3-4.1-9.3-9.1
				s4.2-9.1,9.3-9.1c3.5,0,6.7,1.9,8.3,5H16c-0.3,0-0.5,0.2-0.5,0.5s0.2,0.5,0.5,0.5h5.6c0.3,0,0.5-0.2,0.5-0.5V2.9
				C22,2.7,21.8,2.5,21.5,2.5"/>
		</g>
	</g>
</g>
</svg>
