<?xml version="1.0" encoding="utf-8"?>
<!-- Generator: Adobe Illustrator 21.1.0, SVG Export Plug-In . SVG Version: 6.00 Build 0)  -->
<svg version="1.1" id="圖層_1" xmlns="http://www.w3.org/2000/svg" xmlns:xlink="http://www.w3.org/1999/xlink" x="0px" y="0px"
	 viewBox="0 0 24 24" style="enable-background:new 0 0 24 24;" xml:space="preserve">
<style type="text/css">
	.st0{fill:#FFFFFF;}
	.st1{fill:#333333;}
</style>
<g>
	<path id="path-1" class="st0" d="M15.8,10.5c0-3-2.4-5.4-5.4-5.4s-5.4,2.4-5.4,5.4s2.4,5.4,5.4,5.4S15.8,13.4,15.8,10.5z M22,20.5
		c0,0.8-0.7,1.5-1.5,1.5c-0.4,0-0.8-0.2-1.1-0.5l-4.1-4.1c-1.4,1-3.1,1.5-4.8,1.5c-4.7,0-8.5-3.8-8.5-8.5S5.8,2,10.5,2
		s8.5,3.8,8.5,8.5c0,1.7-0.5,3.4-1.5,4.8l4.1,4.1C21.8,19.7,22,20.1,22,20.5z"/>
</g>
<title>⚙️/icon/function/28 Search</title>
<desc>Created with Sketch.</desc>
<g id="Page-1">
	<g id="_x2699__xFE0F__x2F_icon_x2F_function_x2F_28-Search">
		<g id="_xF002_">
			<path id="path-1_1_" class="st1" d="M15.8,10.5c0-3-2.4-5.4-5.4-5.4s-5.4,2.4-5.4,5.4s2.4,5.4,5.4,5.4S15.8,13.4,15.8,10.5z
				 M22,20.5c0,0.8-0.7,1.5-1.5,1.5c-0.4,0-0.8-0.2-1.1-0.5l-4.1-4.1c-1.4,1-3.1,1.5-4.8,1.5c-4.7,0-8.5-3.8-8.5-8.5S5.8,2,10.5,2
				s8.5,3.8,8.5,8.5c0,1.7-0.5,3.4-1.5,4.8l4.1,4.1C21.8,19.7,22,20.1,22,20.5z"/>
		</g>
	</g>
</g>
</svg>
