<?xml version="1.0" encoding="utf-8"?>
<!-- Generator: Adobe Illustrator 21.1.0, SVG Export Plug-In . SVG Version: 6.00 Build 0)  -->
<svg version="1.1" id="圖層_1" xmlns="http://www.w3.org/2000/svg" xmlns:xlink="http://www.w3.org/1999/xlink" x="0px" y="0px"
	 viewBox="0 0 24 24" style="enable-background:new 0 0 24 24;" xml:space="preserve">
<style type="text/css">
	.st0{fill:#333333;}
</style>
<path class="st0" d="M21.6,2.4L21.6,2.4c-0.4-0.3-0.8-0.5-1.3-0.5l-16.6,0C3.2,1.9,2.8,2,2.4,2.4C2.1,2.7,1.9,3.2,1.9,3.6l0,16.7
	c0,0.5,0.2,0.9,0.5,1.3c0.3,0.3,0.8,0.5,1.3,0.5l16.6,0c0.5,0,1-0.2,1.3-0.5c0.3-0.3,0.5-0.8,0.5-1.3l0-16.7
	C22.2,3.2,22,2.7,21.6,2.4z M20.3,21.3l-16.6,0c-0.3,0-0.5-0.1-0.7-0.3c-0.2-0.2-0.3-0.4-0.3-0.7l0-16.7C2.7,3.4,2.8,3.1,3,3
	c0.2-0.2,0.4-0.3,0.7-0.3l16.6,0c0.3,0,0.5,0.1,0.7,0.3c0.2,0.2,0.3,0.4,0.3,0.7l0,16.7c0,0.2-0.1,0.5-0.3,0.7
	C20.8,21.2,20.6,21.3,20.3,21.3z"/>
<title>⚙️/icon/sidebar/05 selfy</title>
<desc>Created with Sketch.</desc>
<path class="st0" d="M17,6.2c-0.6-0.5-1.3-0.8-2.1-0.8c-0.8,0-1.5,0.3-2.1,0.8c-0.6,0.5-0.9,1.3-0.9,2s0.3,1.5,0.9,2
	c0.6,0.5,1.3,0.8,2.1,0.8c0.8,0,1.5-0.3,2.1-0.8c0.6-0.5,0.9-1.2,0.9-2C17.8,7.5,17.5,6.7,17,6.2z M16.5,9.7c-0.4,0.4-1,0.6-1.6,0.6
	c-0.6,0-1.2-0.2-1.6-0.6c-0.4-0.4-0.7-0.9-0.7-1.5c0-0.6,0.2-1.1,0.7-1.5s1-0.6,1.6-0.6c0.6,0,1.2,0.2,1.6,0.6
	c0.4,0.4,0.7,0.9,0.7,1.5C17.1,8.8,16.9,9.3,16.5,9.7z"/>
<path class="st0" d="M19.7,3.7H4.3C4,3.7,3.8,3.9,3.8,4.2v13.7c0,0.2,0.2,0.4,0.4,0.4h15.5c0.2,0,0.4-0.2,0.4-0.4V4.2
	C20.2,3.9,20,3.7,19.7,3.7z M4.7,4.6h14.6v8.7l-1.6-1c-0.2-0.1-0.4-0.2-0.6-0.2c-0.2,0-0.4,0-0.6,0.1l-4.3,2.2c0,0-0.1,0-0.1,0l0,0
	c0,0-0.1,0-0.1-0.1l-5.2-4.1c-0.2-0.1-0.4-0.2-0.6-0.2c0,0-0.1,0-0.1,0c-0.2,0-0.4,0-0.5,0.1l-0.8,0.4V4.6z M19.4,17.6H4.6v-6.1
	l1.3-0.7c0.1,0,0.2-0.1,0.2,0c0.1,0,0.2,0,0.2,0.1l5.2,4.1c0.2,0.1,0.3,0.2,0.5,0.2h0c0.2,0,0.4,0,0.5-0.1l4.3-2.2
	c0.1,0,0.1-0.1,0.2-0.1c0.1,0,0.1,0,0.2,0.1l2.1,1.3V17.6z"/>
</svg>
