<?xml version="1.0" encoding="utf-8"?>
<!-- Generator: Adobe Illustrator 22.1.0, SVG Export Plug-In . SVG Version: 6.00 Build 0)  -->
<svg version="1.1" id="圖層_1" xmlns="http://www.w3.org/2000/svg" xmlns:xlink="http://www.w3.org/1999/xlink" x="0px" y="0px"
	 viewBox="0 0 24 24" style="enable-background:new 0 0 24 24;" xml:space="preserve">
<style type="text/css">
	.st0{fill:#BCBDBF;}
</style>
<path id="Mask" class="st0" d="M23.3,10.7c0-0.3-0.4-0.6-0.7-0.6c-1,0-2-0.6-2.4-1.6c-0.4-1-0.1-2.1,0.6-2.8
	c0.2-0.2,0.3-0.6,0.1-0.9c-0.5-0.7-1.1-1.3-1.8-1.8c-0.3-0.2-0.6-0.2-0.9,0.1c-0.7,0.8-1.9,1-2.8,0.6c-1-0.4-1.6-1.4-1.5-2.5
	c0-0.3-0.2-0.6-0.6-0.7c-0.8-0.1-1.7-0.1-2.6,0c-0.3,0-0.6,0.3-0.6,0.7c0,1.1-0.6,2-1.6,2.4C7.7,4.2,6.5,3.9,5.8,3.1
	C5.6,2.9,5.2,2.9,5,3.1C4.3,3.6,3.7,4.2,3.1,4.9C2.9,5.1,3,5.5,3.2,5.7c0.8,0.7,1,1.9,0.6,2.8c-0.4,0.9-1.4,1.5-2.5,1.5
	c-0.4,0-0.6,0.2-0.7,0.6c-0.1,0.9-0.1,1.7,0,2.6c0,0.3,0.4,0.6,0.7,0.6c1,0,1.9,0.6,2.3,1.6c0.4,1,0.1,2.1-0.6,2.8
	c-0.2,0.2-0.3,0.6-0.1,0.9c0.5,0.7,1.1,1.3,1.8,1.8c0.3,0.2,0.6,0.2,0.9-0.1c0.7-0.8,1.9-1,2.8-0.6c1,0.4,1.6,1.4,1.5,2.5
	c0,0.3,0.2,0.6,0.6,0.7c0.4,0.1,0.9,0.1,1.3,0.1c0.4,0,0.8,0,1.2-0.1c0.3,0,0.6-0.3,0.6-0.7c0-1.1,0.6-2,1.6-2.4
	c0.9-0.4,2.1-0.1,2.8,0.6c0.2,0.2,0.6,0.3,0.9,0.1c0.7-0.5,1.3-1.1,1.8-1.8c0.2-0.3,0.2-0.6-0.1-0.9c-0.8-0.7-1-1.9-0.6-2.8
	c0.4-0.9,1.3-1.5,2.3-1.5l0.1,0c0.3,0,0.6-0.2,0.7-0.6C23.4,12.5,23.4,11.6,23.3,10.7z M12,15.8c-2.1,0-3.8-1.7-3.8-3.8
	c0-2.1,1.7-3.8,3.8-3.8c2.1,0,3.8,1.7,3.8,3.8C15.8,14.1,14.1,15.8,12,15.8z"/>
</svg>
