<?xml version="1.0" encoding="utf-8"?>
<!-- Generator: Adobe Illustrator 16.0.4, SVG Export Plug-In . SVG Version: 6.00 Build 0)  -->
<!DOCTYPE svg PUBLIC "-//W3C//DTD SVG 1.1//EN" "http://www.w3.org/Graphics/SVG/1.1/DTD/svg11.dtd">
<svg version="1.1" id="圖層_1" xmlns="http://www.w3.org/2000/svg" xmlns:xlink="http://www.w3.org/1999/xlink" x="0px" y="0px"
	 width="762.349px" height="682.112px" viewBox="-451.071 -403.597 762.349 682.112"
	 enable-background="new -451.071 -403.597 762.349 682.112" xml:space="preserve">
<title>Symbol / icon / Function / 38.收藏</title>
<desc>Created with Sketch.</desc>
<g id="Rectangle" transform="translate(1.657895, 2.210526)">
	
		<g id="Mask" transform="translate(8.842105, 8.289474) rotate(-90.000000) translate(-8.842105, -8.289474) translate(0.552632, -0.552632)">
		<path id="Path" d="M246.904-233.872c-11.996-12.013-31.493-12.035-43.499,0c-12.035,12.033-12.035,31.565,0,43.601l91.049,91.26
			H-82.531c-16.949,0-30.73,13.806-30.73,30.813c0,17.017,13.781,30.824,30.73,30.824h376.996l-91.049,91.237
			c-12.028,12.033-12.028,31.577,0,43.601c6.007,6.047,13.868,9.028,21.731,9.028c7.875,0,15.739-2.992,21.756-9.028L390.491-46.381
			c12.006-12.057,12.006-31.568,0-43.625L246.904-233.872z"/>
		<path id="Path_1_" d="M61.045,270.921c16.997,0,30.78-13.784,30.78-30.847c0-17.03-13.784-30.813-30.78-30.813h-235.892V-345.66
			H61.035c16.99,0,30.777-13.795,30.777-30.812c0-17.041-13.788-30.847-30.777-30.847h-266.647c-16.943,0-30.74,13.806-30.74,30.847
			v616.558c0,17.063,13.797,30.847,30.74,30.847H61.045V270.921z"/>
	</g>
</g>
</svg>
