<?xml version="1.0" encoding="utf-8"?>
<!-- Generator: Adobe Illustrator 21.1.0, SVG Export Plug-In . SVG Version: 6.00 Build 0)  -->
<svg version="1.1" id="圖層_1" xmlns="http://www.w3.org/2000/svg" xmlns:xlink="http://www.w3.org/1999/xlink" x="0px" y="0px"
	 viewBox="0 0 24 24" style="enable-background:new 0 0 24 24;" xml:space="preserve">
<style type="text/css">
	.st0{fill:#FFFFFF;}
	.st1{fill:#333333;}
</style>
<g>
	<path id="path-1" class="st0" d="M12,18.1l5.5,3l-1-6.4l4.5-4.6l-6.2-0.9L12,3.4L9.3,9.1l-6.2,0.9l4.5,4.6l-1,6.4L12,18.1z
		 M12,19.2L5.2,23l1.3-8L1,9.4l7.6-1.2L12,1l3.4,7.2L23,9.4L17.5,15l1.3,8L12,19.2z"/>
</g>
<title>⚙️/icon/function/33 star border</title>
<desc>Created with Sketch.</desc>
<g id="Page-1">
	<g id="_x2699__xFE0F__x2F_icon_x2F_function_x2F_33-star-border">
		<g id="Star-2">
			<path id="path-1_1_" class="st1" d="M12,18.1l5.5,3l-1-6.4l4.5-4.6l-6.2-0.9L12,3.4L9.3,9.1l-6.2,0.9l4.5,4.6l-1,6.4L12,18.1z
				 M12,19.2L5.2,23l1.3-8L1,9.4l7.6-1.2L12,1l3.4,7.2L23,9.4L17.5,15l1.3,8L12,19.2z"/>
		</g>
	</g>
</g>
</svg>
