<?xml version="1.0" encoding="utf-8"?>
<!-- Generator: Adobe Illustrator 22.1.0, SVG Export Plug-In . SVG Version: 6.00 Build 0)  -->
<svg version="1.1" id="圖層_1" xmlns="http://www.w3.org/2000/svg" xmlns:xlink="http://www.w3.org/1999/xlink" x="0px" y="0px"
	 viewBox="0 0 38 38" style="enable-background:new 0 0 38 38;" xml:space="preserve">
<style type="text/css">
	.st0{fill:#202122;}
</style>
<path id="Mask" class="st0" d="M19,1c9.9,0,18,8.1,18,18s-8.1,18-18,18S1,28.9,1,19S9.1,1,19,1z M30.6,12.5l-2.1-2.1
	c-0.3-0.3-0.6-0.4-1.1-0.4c-0.4,0-0.8,0.1-1.1,0.4l-10.2,10l-4.6-4.5c-0.3-0.3-0.6-0.4-1.1-0.4c-0.4,0-0.8,0.1-1.1,0.4L7.4,18
	C7.1,18.3,7,18.6,7,19c0,0.4,0.1,0.7,0.4,1l5.6,5.5l2.1,2.1c0.3,0.3,0.6,0.4,1.1,0.4c0.4,0,0.8-0.1,1.1-0.4l2.1-2.1l11.2-11
	c0.3-0.3,0.4-0.6,0.4-1C31,13.1,30.9,12.8,30.6,12.5z"/>
</svg>
