<?xml version="1.0" encoding="utf-8"?>
<!-- Generator: Adobe Illustrator 21.1.0, SVG Export Plug-In . SVG Version: 6.00 Build 0)  -->
<svg version="1.1" id="圖層_1" xmlns="http://www.w3.org/2000/svg" xmlns:xlink="http://www.w3.org/1999/xlink" x="0px" y="0px"
	 viewBox="0 0 24 24" style="enable-background:new 0 0 24 24;" xml:space="preserve">
<style type="text/css">
	.st0{fill:#FFFFFF;}
	.st1{fill:#333333;}
</style>
<g>
	<path id="path-1" class="st0" d="M14,15c0-1,0.1-2.7,0.9-3.9c0.1-0.2,0.2-0.4,0-0.6c-0.1-0.2-0.3-0.3-0.5-0.3H10
		c-0.2,0-0.4,0.1-0.5,0.3c-0.1,0.2-0.1,0.5,0,0.6c0.8,1.2,0.9,2.9,0.9,3.9C8,14.3,6.2,12,6.2,9.3c0-3.3,2.7-6,6-6s6,2.7,6,6
		C18.2,12,16.4,14.3,14,15L14,15z M14.2,20.1c0,0.4-0.3,0.7-0.7,0.7h-2.7c-0.4,0-0.7-0.3-0.7-0.7v0L14.2,20.1L14.2,20.1z M14.2,18.8
		h-4v-2.6c0.6,0.2,1.3,0.3,2,0.3c0.7,0,1.4-0.1,2-0.3V18.8z M12.8,15.3c-0.2,0-0.4,0-0.6,0c-0.2,0-0.4,0-0.6,0c0-0.8,0-2.5-0.6-3.9
		h2.3C12.7,12.8,12.7,14.4,12.8,15.3L12.8,15.3z M12.2,2C8.2,2,5,5.3,5,9.3c0,2.8,1.6,5.3,4,6.5v4.3c0,1,0.8,1.9,1.9,1.9h2.7
		c1,0,1.9-0.9,1.9-1.9v-4.3c2.3-1.2,4-3.7,4-6.5C19.4,5.3,16.2,2,12.2,2L12.2,2z"/>
</g>
<title>⚙️/icon/function/02 tips</title>
<desc>Created with Sketch.</desc>
<g id="Page-1">
	<g id="_x2699__xFE0F__x2F_icon_x2F_function_x2F_02-tips">
		<g id="Fill-1">
			<path id="path-1_1_" class="st1" d="M14,15c0-1,0.1-2.7,0.9-3.9c0.1-0.2,0.2-0.4,0-0.6c-0.1-0.2-0.3-0.3-0.5-0.3H10
				c-0.2,0-0.4,0.1-0.5,0.3c-0.1,0.2-0.1,0.5,0,0.6c0.8,1.2,0.9,2.9,0.9,3.9C8,14.3,6.2,12,6.2,9.3c0-3.3,2.7-6,6-6s6,2.7,6,6
				C18.2,12,16.4,14.3,14,15L14,15z M14.2,20.1c0,0.4-0.3,0.7-0.7,0.7h-2.7c-0.4,0-0.7-0.3-0.7-0.7v0L14.2,20.1L14.2,20.1z
				 M14.2,18.8h-4v-2.6c0.6,0.2,1.3,0.3,2,0.3c0.7,0,1.4-0.1,2-0.3V18.8z M12.8,15.3c-0.2,0-0.4,0-0.6,0c-0.2,0-0.4,0-0.6,0
				c0-0.8,0-2.5-0.6-3.9h2.3C12.7,12.8,12.7,14.4,12.8,15.3L12.8,15.3z M12.2,2C8.2,2,5,5.3,5,9.3c0,2.8,1.6,5.3,4,6.5v4.3
				c0,1,0.8,1.9,1.9,1.9h2.7c1,0,1.9-0.9,1.9-1.9v-4.3c2.3-1.2,4-3.7,4-6.5C19.4,5.3,16.2,2,12.2,2L12.2,2z"/>
		</g>
	</g>
</g>
</svg>
