<svg id="圖層_1" data-name="圖層 1" xmlns="http://www.w3.org/2000/svg" viewBox="0 0 36 32"><defs><style>.cls-1{fill:#202122;}</style></defs><title>11.warning</title><g id="Page-1"><g id="Symbol-_-icon-_-New-_-11.warning" data-name="Symbol-/-icon-/-New-/-11.warning"><path id="Mask" class="cls-1" d="M35.25,24,22.54,2.6a5.26,5.26,0,0,0-9.08,0L.75,24a5.3,5.3,0,0,0,4.54,8H30.71a5.3,5.3,0,0,0,4.54-8ZM18,6.54a2.11,2.11,0,0,1,2.11,2.12v8.49a2.11,2.11,0,1,1-4.22,0V8.66A2.11,2.11,0,0,1,18,6.54Zm0,21.22a3.19,3.19,0,1,1,3.17-3.19A3.18,3.18,0,0,1,18,27.76Z" transform="translate(0 0)"/></g></g></svg>