<?xml version="1.0" encoding="utf-8"?>
<!-- Generator: Adobe Illustrator 21.1.0, SVG Export Plug-In . SVG Version: 6.00 Build 0)  -->
<svg version="1.1" id="圖層_1" xmlns="http://www.w3.org/2000/svg" xmlns:xlink="http://www.w3.org/1999/xlink" x="0px" y="0px"
	 viewBox="0 0 24 24" style="enable-background:new 0 0 24 24;" xml:space="preserve">
<g>
	<defs>
		<path id="SVGID_1_" d="M14.1,16.7c0-0.4-0.4-0.8-0.8-0.8h-2.6c-0.4,0-0.8,0.3-0.8,0.8v2.7c0,0.4,0.4,0.8,0.8,0.8h2.6
			c0.4,0,0.8-0.3,0.8-0.8V16.7z M13.5,3.8h-3c-0.5,0-0.7,0.5-0.7,0.8l0.2,9.9c0,0.4,0.4,0.8,0.8,0.8h2.5c0.4,0,0.8-0.3,0.8-0.7
			l0.2-9.9v0C14.2,4.2,13.9,3.8,13.5,3.8z M12,24C5.4,24,0,18.6,0,12S5.4,0,12,0s12,5.4,12,12S18.6,24,12,24z"/>
	</defs>
	<use xlink:href="#SVGID_1_"  style="overflow:visible;fill-rule:evenodd;clip-rule:evenodd;fill:#231815;"/>
	<clipPath id="SVGID_2_">
		<use xlink:href="#SVGID_1_"  style="overflow:visible;"/>
	</clipPath>
</g>
</svg>
