<?xml version="1.0" encoding="utf-8"?>
<!-- Generator: Adobe Illustrator 21.1.0, SVG Export Plug-In . SVG Version: 6.00 Build 0)  -->
<svg version="1.1" id="圖層_1" xmlns="http://www.w3.org/2000/svg" xmlns:xlink="http://www.w3.org/1999/xlink" x="0px" y="0px"
	 viewBox="0 0 24 24" style="enable-background:new 0 0 24 24;" xml:space="preserve">
<style type="text/css">
	.st0{fill:#FFFFFF;}
	.st1{fill:#333333;}
</style>
<g>
	<path id="path-1" class="st0" d="M9.5,2c0.5,0,1,0.4,1,0.9V3l-0.2,12.1c0,0.5-0.4,0.9-1,0.9H6.2c-0.5,0-1-0.4-1-0.9L5,3
		c0-0.4,0.3-1,0.8-1H9.5z M10.3,17.7v3.3c0,0.5-0.4,0.9-1,0.9H6.1c-0.5,0-1-0.4-1-0.9v-3.3c0-0.5,0.4-0.9,1-0.9h3.2
		C9.9,16.8,10.3,17.2,10.3,17.7z M18.5,2c0.5,0,1,0.4,1,0.9V3l-0.2,12.1c0,0.5-0.4,0.9-1,0.9h-3.1c-0.5,0-1-0.4-1-0.9L14,3
		c0-0.4,0.3-1,0.8-1H18.5z M19.3,17.7v3.3c0,0.5-0.4,0.9-1,0.9h-3.2c-0.5,0-1-0.4-1-0.9v-3.3c0-0.5,0.4-0.9,1-0.9h3.2
		C18.9,16.8,19.3,17.2,19.3,17.7z"/>
</g>
<title>⚙️/icon/function/30 Warning</title>
<desc>Created with Sketch.</desc>
<g id="Page-1">
	<g id="_x2699__xFE0F__x2F_icon_x2F_function_x2F_30-Warning">
		<g id="Combined-Shape">
			<path id="path-1_1_" class="st1" d="M9.5,2c0.5,0,1,0.4,1,0.9V3l-0.2,12.1c0,0.5-0.4,0.9-1,0.9H6.2c-0.5,0-1-0.4-1-0.9L5,3
				c0-0.4,0.3-1,0.8-1H9.5z M10.3,17.7v3.3c0,0.5-0.4,0.9-1,0.9H6.1c-0.5,0-1-0.4-1-0.9v-3.3c0-0.5,0.4-0.9,1-0.9h3.2
				C9.9,16.8,10.3,17.2,10.3,17.7z M18.5,2c0.5,0,1,0.4,1,0.9V3l-0.2,12.1c0,0.5-0.4,0.9-1,0.9h-3.1c-0.5,0-1-0.4-1-0.9L14,3
				c0-0.4,0.3-1,0.8-1H18.5z M19.3,17.7v3.3c0,0.5-0.4,0.9-1,0.9h-3.2c-0.5,0-1-0.4-1-0.9v-3.3c0-0.5,0.4-0.9,1-0.9h3.2
				C18.9,16.8,19.3,17.2,19.3,17.7z"/>
		</g>
	</g>
</g>
</svg>
